<svg width="32" height="35" viewBox="0 0 32 35" fill="none" xmlns="http://www.w3.org/2000/svg">
<path d="M4.43528 15.7755V8.74456V2.55441L0.011438 0V6.23368V15.9519L0 15.9748V25.1615L4.99197 28.0435L4.98053 28.0664L11.9885 32.1123L15.9794 34.417L15.9817 34.4193L15.9931 34.4124V34.4055L16 34.4078L16.0069 34.4055V34.4124L16.0183 34.4193L16.0206 34.417L20.0115 32.1123L27.0195 28.0664L27.0057 28.0435L32 25.1615V15.9748L31.9885 15.9519V6.23368V0L27.5647 2.55441V8.74456V15.7755L27.5739 15.7915V22.4353L23.9611 24.5201L23.9702 24.5384L18.9026 27.4639L16.0137 29.1317L16.0046 29.1272V29.1203L16 29.1249L15.9954 29.1203V29.1272L15.9862 29.1317L13.0974 27.4639L8.02977 24.5384L8.03894 24.5201L4.42611 22.4353V15.7915L4.43528 15.7755Z" fill="#E1E3E6"/>
<path d="M15.9983 21.8786H15.996L14.6146 21.0791L12.1862 19.6793L12.1907 19.6701L10.4611 18.6713V15.4891L10.4656 15.4823V12.1169V5.99773L5.8998 3.36084L5.89062 3.36542V15.4891H5.89521V21.3311L10.9422 24.2452L10.9467 24.2383L16.0029 27.1592L20.5733 24.5201L20.5687 24.5178L26.1106 21.3173V19.9977V15.4823H26.106V9.63805L21.059 6.72396L21.0544 6.73312L15.9983 3.81216L11.728 6.27722V11.5556L13.2286 10.6896L13.2308 10.6942L16.0052 9.0928L18.7703 10.6896L18.7658 10.6965L21.5401 12.2978V15.48L21.5355 15.4891V18.6873L18.7726 20.2818L18.7703 20.2772L15.9983 21.8786Z" fill="#E1E3E6"/>
</svg>
