<svg width="48" height="52" viewBox="0 0 48 52" fill="none" xmlns="http://www.w3.org/2000/svg">
<path d="M6.65292 23.6632V13.1168V3.83162L0.017157 0V9.35052V23.9278L0 23.9622V37.7423L7.48795 42.0653L7.47079 42.0997L17.9828 48.1684L23.9691 51.6255L23.9725 51.6289L23.9897 51.6186V51.6083L24 51.6117L24.0103 51.6083V51.6186L24.0275 51.6289L24.0309 51.6255L30.0172 48.1684L40.5292 42.0997L40.5086 42.0653L48 37.7423V23.9622L47.9828 23.9278V9.35052V0L41.3471 3.83162V13.1168V23.6632L41.3608 23.6873V33.6529L35.9416 36.7801L35.9553 36.8076L28.3539 41.1959L24.0206 43.6976L24.0069 43.6907V43.6804L24 43.6873L23.9931 43.6804V43.6907L23.9794 43.6976L19.646 41.1959L12.0447 36.8076L12.0584 36.7801L6.63916 33.6529V23.6873L6.65292 23.6632Z" fill="#E84E1B"/>
<path d="M23.9975 32.8181H23.994L21.9218 31.6188L18.2792 29.5192L18.2861 29.5054L15.6916 28.0072V23.234L15.6985 23.2236V18.1755V8.99683L8.8497 5.0415L8.83594 5.04838V23.234H8.84282V31.9968L16.4132 36.368L16.4201 36.3577L24.0043 40.7391L30.86 36.7803L30.8531 36.7769L39.1659 31.9762V29.9968V23.2236H39.159V14.4573L31.5885 10.0862L31.5816 10.0999L23.9975 5.71848L17.5919 9.41608V17.3336L19.8428 16.0346L19.8463 16.0415L24.0078 13.6394L28.1555 16.0346L28.1486 16.0449L32.3102 18.447V23.2202L32.3033 23.234V28.0312L28.159 30.423L28.1555 30.4161L23.9975 32.8181Z" fill="#2D88D6"/>
</svg>
