<svg width="50" height="50" viewBox="0 0 50 50" fill="none" xmlns="http://www.w3.org/2000/svg">
<g clip-path="url(#clip0_477_22575)">
<path d="M10.1465 0.322266C9.9707 0.439453 9.7168 0.693359 9.58984 0.878906L9.36523 1.21094L9.39453 4.84375C9.42383 8.33984 9.43359 8.49609 9.62891 8.75977C9.86328 9.08203 10.5762 9.47266 10.9375 9.47266C11.4258 9.47266 12.041 9.0625 12.2852 8.59375C12.5 8.1543 12.5098 8.13477 12.4805 4.61914C12.4512 1.21094 12.4414 1.07422 12.2461 0.810547C11.709 0.0878906 10.8105 -0.126953 10.1465 0.322266Z" fill="#A5A8AD"/>
<path d="M19.5312 0.312536C19.3555 0.439489 19.1113 0.664099 19.0039 0.810583C18.8086 1.08402 18.7988 1.19144 18.7988 4.77543V8.46683L19.0625 8.80863C19.7656 9.7266 21.1621 9.60941 21.6797 8.59379C21.875 8.21293 21.8848 8.07621 21.8555 4.63871C21.8262 1.21097 21.8164 1.07425 21.6211 0.810583C21.2793 0.341833 20.8203 0.0976925 20.3125 0.0976925C20 0.0976925 19.7559 0.166052 19.5312 0.312536Z" fill="#A5A8AD"/>
<path d="M28.9064 0.312536C28.7306 0.439489 28.4865 0.664099 28.3791 0.810583C28.1838 1.07425 28.174 1.21097 28.1447 4.63871C28.1154 8.07621 28.1252 8.21293 28.3205 8.59379C28.838 9.60941 30.2345 9.7266 30.9377 8.80863L31.2013 8.46683V4.77543C31.2013 1.19144 31.1916 1.08402 30.9962 0.810583C30.6545 0.341833 30.1955 0.0976925 29.6877 0.0976925C29.3752 0.0976925 29.131 0.166052 28.9064 0.312536Z" fill="#A5A8AD"/>
<path d="M38.2816 0.3125C38.1058 0.439453 37.8617 0.664062 37.7542 0.810547C37.5589 1.07422 37.5492 1.21094 37.5199 4.61914C37.4906 8.13477 37.5003 8.1543 37.7152 8.59375C37.9593 9.0625 38.5746 9.47266 39.0628 9.47266C39.4242 9.47266 40.1371 9.08203 40.3714 8.75977C40.5667 8.48633 40.5765 8.35938 40.5765 4.78516C40.5765 1.19141 40.5667 1.08398 40.3714 0.810547C40.0296 0.341797 39.5707 0.0976562 39.0628 0.0976562C38.7503 0.0976562 38.5062 0.166016 38.2816 0.3125Z" fill="#A5A8AD"/>
<path d="M3.61338 3.83812C2.00205 4.385 0.888772 5.47875 0.263772 7.10961L0.0489282 7.66625L0.0196314 26.4455C-0.00966551 47.1194 -0.0389624 45.8303 0.595803 47.0901C1.01573 47.9202 1.9044 48.8284 2.72471 49.258C4.05283 49.9514 2.32432 49.9026 25.0001 49.9026C43.0665 49.9026 45.5372 49.883 46.045 49.7561C47.9103 49.2776 49.4142 47.7444 49.8536 45.8889C50.0685 44.9514 50.0685 8.57445 49.8536 7.63695C49.4435 5.89867 48.2813 4.56078 46.6017 3.88695C46.0841 3.68187 45.879 3.66234 43.7208 3.63305L41.3868 3.60375L41.4454 5.53734C41.4845 6.6018 41.5138 7.64672 41.5235 7.87133C41.5431 8.71117 41.0157 9.55101 40.1954 9.99047C39.629 10.2834 38.4962 10.2834 37.9298 9.99047C37.0216 9.50219 36.5626 8.63305 36.67 7.55883C36.6993 7.18773 36.7481 6.15258 36.7774 5.24437L36.8263 3.61351H34.3751H31.9337V5.06859C31.9337 6.07445 31.9825 6.70922 32.0899 7.11937C32.5196 8.82836 31.1817 10.4006 29.4337 10.2248C28.5255 10.1272 27.7442 9.55101 27.3829 8.71117C27.2071 8.29125 27.1778 7.30492 27.3341 6.90453C27.3927 6.74828 27.4415 5.98656 27.4415 5.11742V3.61351H25.0001H22.5587V5.11742C22.5587 5.9768 22.6075 6.74828 22.6661 6.90453C22.8224 7.30492 22.7931 8.29125 22.6173 8.71117C22.0118 10.137 20.2052 10.6936 18.9356 9.83422C18.047 9.23851 17.6466 8.17406 17.9103 7.11937C18.0177 6.70922 18.0665 6.07445 18.0665 5.06859V3.61351H15.6153H13.1739L13.2228 5.2932C13.2521 6.22094 13.3009 7.26586 13.3302 7.60765C13.4376 8.62328 12.9689 9.51195 12.0704 9.99047C11.504 10.2834 10.3712 10.2834 9.80479 9.99047C8.98448 9.55101 8.45713 8.71117 8.47666 7.87133C8.48643 7.64672 8.51573 6.6018 8.55479 5.53734L8.61338 3.61351H6.42588C4.43369 3.61351 4.18955 3.63305 3.61338 3.83812ZM45.1661 14.1116C46.2501 14.3948 47.256 15.2834 47.7052 16.3772C47.9005 16.8362 47.9005 17.1487 47.9298 30.5569C47.9396 39.5803 47.92 44.4534 47.8517 44.8049C47.7052 45.5959 47.3927 46.1721 46.7774 46.7873C46.4063 47.1584 46.0548 47.4026 45.6544 47.5686L45.0685 47.803L25.254 47.8323C3.21299 47.8616 4.75596 47.9006 3.71104 47.1877C3.07627 46.758 2.50987 46.0354 2.27549 45.3616C2.10948 44.9026 2.09971 43.9651 2.09971 30.9084C2.09971 17.8518 2.10948 16.9143 2.27549 16.4553C2.64658 15.4006 3.71104 14.4045 4.78526 14.1213C5.61533 13.8967 44.3067 13.8967 45.1661 14.1116Z" fill="#A5A8AD"/>
<path d="M11.9631 24.9609C10.3323 25.3223 9.08227 26.4844 8.75024 27.9492L8.69165 28.2227H10.0979H11.5041L11.6213 27.9395C11.8948 27.2754 12.6565 26.8945 13.5256 26.9824C14.5022 27.0801 14.9612 27.4902 14.9612 28.2617C14.9612 29.1211 14.5706 29.3945 13.262 29.4727L12.4026 29.5215V30.5664V31.6113L13.3401 31.6797C14.8928 31.7871 15.3518 32.1094 15.4104 33.1348C15.469 34.2383 14.8635 34.7656 13.5452 34.7656C12.3733 34.7656 11.7874 34.4727 11.426 33.7402L11.2112 33.3008H9.87329C9.1311 33.3008 8.5061 33.3301 8.4768 33.3594C8.38891 33.4375 8.63305 34.2676 8.87719 34.7363C9.34594 35.6641 10.3323 36.4453 11.4456 36.7773C12.3147 37.0312 14.5413 37.0312 15.3811 36.7773C17.217 36.2207 18.2034 35.166 18.3303 33.623C18.4377 32.3145 17.8811 31.2598 16.7678 30.6934L16.2893 30.459L16.592 30.293C17.4416 29.834 17.8713 29.1113 17.8616 28.125C17.8616 26.6504 17.0022 25.5859 15.4299 25.0879C14.5608 24.8145 12.8909 24.7559 11.9631 24.9609Z" fill="#A5A8AD"/>
<path d="M23.6426 25.0003C22.2852 25.3616 21.2988 26.1721 20.6836 27.4514C20.1172 28.6135 19.9805 29.3264 19.9805 31.0061C19.9805 33.135 20.3516 34.4143 21.2891 35.469C22.7148 37.0901 25.4688 37.4807 27.7051 36.3772C29.6094 35.4397 30.4492 33.1643 29.668 31.0647C29.375 30.303 28.4863 29.4143 27.6855 29.1018C26.4258 28.6135 24.3457 28.7503 23.457 29.385C22.793 29.8733 22.8125 29.8733 22.8809 29.2678C22.9785 28.2717 23.5156 27.3733 24.1895 27.0901C24.9805 26.7483 26.2402 27.0315 26.5918 27.637L26.7676 27.9299H28.1348C29.707 27.9299 29.668 27.9592 29.209 26.9827C28.8672 26.2698 28.3594 25.7424 27.666 25.3616C26.6309 24.8049 24.9707 24.6585 23.6426 25.0003ZM26.0547 31.1233C26.6992 31.3479 26.9922 31.8069 27.0312 32.6663C27.0703 33.4085 26.9043 33.9358 26.4941 34.2971C25.8105 34.9124 24.2871 34.9124 23.6035 34.2971C23.1055 33.8577 22.8223 32.7444 23.0371 32.0999C23.1934 31.6311 23.8184 31.0842 24.2871 31.0061C24.4922 30.9671 24.7266 30.928 24.8047 30.9182C25.0586 30.8792 25.6152 30.9671 26.0547 31.1233Z" fill="#A5A8AD"/>
<path d="M32.9688 25.4592C32.9395 25.6643 32.8027 26.5725 32.6563 27.4807C32.5195 28.3889 32.3047 29.7268 32.1777 30.4592C32.0508 31.1819 31.9531 31.7971 31.9727 31.8069C31.9824 31.8166 32.5195 31.8947 33.1543 31.9631L34.3164 32.0998L34.8145 31.592C35.2246 31.1721 35.4004 31.0647 35.8203 30.967C36.4648 30.8303 36.6797 30.8303 37.3047 30.967C38.1934 31.1526 38.7598 31.885 38.7695 32.842C38.7695 34.0529 38.0273 34.7658 36.7578 34.7658C36.3965 34.7658 35.9277 34.717 35.7129 34.6487C35.2637 34.5119 34.6973 34.0041 34.6094 33.6428L34.5508 33.3987H33.1348H31.7188L31.7871 33.7112C32.1094 35.2541 33.457 36.4944 35.2051 36.8654C37.7734 37.4026 40.2441 36.5139 41.1133 34.7365C42.207 32.4709 41.2891 29.8049 39.1406 29.0432C38.0566 28.6623 36.2988 28.7014 35.4297 29.1311L34.9609 29.3654L35.0195 28.8674C35.0586 28.594 35.1367 28.135 35.1953 27.8322L35.3027 27.2951L38.0664 27.2658C39.5801 27.2561 40.8203 27.2072 40.8203 27.1682C40.8203 27.1291 40.8887 26.6799 40.9668 26.1721C41.0449 25.6643 41.1133 25.2151 41.1133 25.1662C41.1133 25.1272 39.2969 25.0979 37.0703 25.0979H33.0273L32.9688 25.4592Z" fill="#A5A8AD"/>
</g>
<defs>
<clipPath id="clip0_477_22575">
<rect width="50" height="50" fill="white"/>
</clipPath>
</defs>
</svg>
