<svg width="24" height="24" viewBox="0 0 24 24" fill="none" xmlns="http://www.w3.org/2000/svg">
<g clip-path="url(#clip0_241_178)">
<path d="M18.2476 17.25H10.1476C9.6533 17.251 9.17248 17.0892 8.77936 16.7896C8.38624 16.49 8.10271 16.0693 7.97255 15.5925L6.00005 8.44503C5.96972 8.33378 5.96544 8.21704 5.98755 8.10388C6.00967 7.99071 6.05757 7.88417 6.12755 7.79253C6.20046 7.69765 6.29501 7.6216 6.4033 7.57071C6.51159 7.51983 6.63049 7.49559 6.75005 7.50003H21.0001C21.1102 7.49985 21.2191 7.52395 21.3189 7.57061C21.4187 7.61728 21.507 7.68536 21.5776 7.77003C21.6472 7.85478 21.6974 7.95378 21.7246 8.06004C21.7518 8.1663 21.7554 8.27724 21.7351 8.38503L20.4601 15.405C20.3653 15.9228 20.092 16.3909 19.6878 16.728C19.2835 17.0651 18.7739 17.2499 18.2476 17.25ZM7.74755 9.00003L9.43505 15.195C9.479 15.3586 9.57706 15.5026 9.71325 15.6033C9.84943 15.7041 10.0157 15.7558 10.1851 15.75H18.2851C18.4626 15.7529 18.6355 15.6927 18.7728 15.5801C18.9102 15.4675 19.0031 15.3097 19.0351 15.135L20.1001 9.00003H7.74755Z" fill="#4F4F4F"/>
<path d="M6.75 9C6.58167 9.00623 6.41614 8.9556 6.28008 8.85628C6.14403 8.75696 6.04537 8.61473 6 8.4525L4.8375 4.2975C4.79213 4.13528 4.69348 3.99305 4.55742 3.89373C4.42137 3.7944 4.25584 3.74378 4.0875 3.75H3C2.80109 3.75 2.61032 3.67098 2.46967 3.53033C2.32902 3.38968 2.25 3.19891 2.25 3C2.25 2.80109 2.32902 2.61032 2.46967 2.46967C2.61032 2.32902 2.80109 2.25 3 2.25H4.1175C4.60755 2.24931 5.08442 2.40863 5.47565 2.70374C5.86687 2.99885 6.15105 3.41362 6.285 3.885L7.5 8.0475C7.53049 8.14599 7.54034 8.2497 7.52895 8.35217C7.51755 8.45464 7.48515 8.55365 7.43378 8.64304C7.3824 8.73242 7.31314 8.81025 7.23034 8.87167C7.14753 8.93309 7.05295 8.97678 6.9525 9C6.88544 9.01092 6.81706 9.01092 6.75 9Z" fill="#4F4F4F"/>
<path d="M12 21.75C11.7033 21.75 11.4133 21.662 11.1666 21.4972C10.92 21.3324 10.7277 21.0981 10.6142 20.824C10.5006 20.5499 10.4709 20.2483 10.5288 19.9574C10.5867 19.6664 10.7296 19.3991 10.9393 19.1893C11.1491 18.9796 11.4164 18.8367 11.7074 18.7788C11.9983 18.7209 12.2999 18.7506 12.574 18.8642C12.8481 18.9777 13.0824 19.17 13.2472 19.4166C13.412 19.6633 13.5 19.9533 13.5 20.25C13.5 20.6478 13.342 21.0294 13.0607 21.3107C12.7794 21.592 12.3978 21.75 12 21.75Z" fill="#4F4F4F"/>
<path d="M16.5 21.75C16.2033 21.75 15.9133 21.662 15.6666 21.4972C15.42 21.3324 15.2277 21.0981 15.1142 20.824C15.0006 20.5499 14.9709 20.2483 15.0288 19.9574C15.0867 19.6664 15.2296 19.3991 15.4393 19.1893C15.6491 18.9796 15.9164 18.8367 16.2074 18.7788C16.4983 18.7209 16.7999 18.7506 17.074 18.8642C17.3481 18.9777 17.5824 19.17 17.7472 19.4166C17.912 19.6633 18 19.9533 18 20.25C18 20.6478 17.842 21.0294 17.5607 21.3107C17.2794 21.592 16.8978 21.75 16.5 21.75Z" fill="#4F4F4F"/>
<path d="M16.5 12.75H12C11.8011 12.75 11.6103 12.671 11.4697 12.5303C11.329 12.3897 11.25 12.1989 11.25 12C11.25 11.8011 11.329 11.6103 11.4697 11.4697C11.6103 11.329 11.8011 11.25 12 11.25H16.5C16.6989 11.25 16.8897 11.329 17.0303 11.4697C17.171 11.6103 17.25 11.8011 17.25 12C17.25 12.1989 17.171 12.3897 17.0303 12.5303C16.8897 12.671 16.6989 12.75 16.5 12.75Z" fill="#4F4F4F"/>
</g>
<defs>
<clipPath id="clip0_241_178">
<rect width="24" height="24" fill="white"/>
</clipPath>
</defs>
</svg>
