<svg xmlns="http://www.w3.org/2000/svg">
    <symbol id="geo" viewBox="0 0 24 24" fill="none">
        <path d="M6.4 20.25C5.98579 20.25 5.65 20.5858 5.65 21C5.65 21.4142 5.98579 21.75 6.4 21.75V20.25ZM17.6 21.75C18.0142 21.75 18.35 21.4142 18.35 21C18.35 20.5858 18.0142 20.25 17.6 20.25V21.75ZM18.25 9.75C18.25 11.2508 17.2502 13.217 15.8477 14.8643C15.1604 15.6715 14.4106 16.3606 13.705 16.8413C12.9775 17.3371 12.3871 17.55 12 17.55V19.05C12.8379 19.05 13.735 18.636 14.5497 18.0809C15.3863 17.5108 16.2334 16.7251 16.9898 15.8367C18.4748 14.0926 19.75 11.7838 19.75 9.75H18.25ZM12 17.55C11.6276 17.55 11.044 17.3285 10.3125 16.7989C9.60584 16.2874 8.85403 15.5556 8.16415 14.7035C6.75685 12.9654 5.75 10.9085 5.75 9.4H4.25C4.25 11.4261 5.51815 13.8192 6.99835 15.6474C7.75222 16.5785 8.59729 17.409 9.43285 18.0139C10.2435 18.6008 11.1474 19.05 12 19.05V17.55ZM5.75 9.4C5.75 6.20463 8.70934 3.75 12 3.75V2.25C8.07414 2.25 4.25 5.19537 4.25 9.4H5.75ZM12 3.75C15.2627 3.75 18.25 6.17967 18.25 9.75H19.75C19.75 5.22033 15.9538 2.25 12 2.25V3.75ZM14.05 9.3C14.05 10.3515 13.1581 11.25 12 11.25V12.75C13.9347 12.75 15.55 11.2309 15.55 9.3H14.05ZM12 11.25C10.8419 11.25 9.95 10.3515 9.95 9.3H8.45C8.45 11.2309 10.0653 12.75 12 12.75V11.25ZM9.95 9.3C9.95 8.24852 10.8419 7.35 12 7.35V5.85C10.0653 5.85 8.45 7.36914 8.45 9.3H9.95ZM12 7.35C13.1581 7.35 14.05 8.24852 14.05 9.3H15.55C15.55 7.36914 13.9347 5.85 12 5.85V7.35ZM6.4 21.75H17.6V20.25H6.4V21.75Z" fill="#4F4F4F"/>
    </symbol>
    <symbol id="telegram" viewBox="0 0 24 24" fill="none">
        <path d="M21 5L2 12.5L9 13.5M21 5L18.5 20L9 13.5M21 5L9 13.5M9 13.5V19L12.249 15.723" stroke="#4F4F4F" stroke-width="1.5" stroke-linecap="round" stroke-linejoin="round"/>
    </symbol>
    <symbol id="whatsapp" viewBox="0 0 24 24" fill="none">
        <path d="M3 21.0002L4.65 17.2002C3.38766 15.4083 2.82267 13.2172 3.06104 11.0383C3.29942 8.85939 4.32479 6.84235 5.94471 5.36573C7.56463 3.88911 9.66775 3.05443 11.8594 3.01831C14.051 2.9822 16.1805 3.74714 17.8482 5.16959C19.5159 6.59203 20.6071 8.57419 20.9172 10.7441C21.2272 12.914 20.7347 15.1224 19.5321 16.955C18.3295 18.7875 16.4994 20.1182 14.3854 20.6973C12.2713 21.2764 10.0186 21.0641 8.05 20.1002L3 21.0002Z" stroke="#4F4F4F" stroke-width="1.5" stroke-linecap="round" stroke-linejoin="round"/>
        <path d="M9 10C9 10.1326 9.05268 10.2598 9.14645 10.3536C9.24021 10.4473 9.36739 10.5 9.5 10.5C9.63261 10.5 9.75979 10.4473 9.85355 10.3536C9.94732 10.2598 10 10.1326 10 10V9C10 8.86739 9.94732 8.74021 9.85355 8.64645C9.75979 8.55268 9.63261 8.5 9.5 8.5C9.36739 8.5 9.24021 8.55268 9.14645 8.64645C9.05268 8.74021 9 8.86739 9 9V10ZM9 10C9 11.3261 9.52678 12.5979 10.4645 13.5355C11.4021 14.4732 12.6739 15 14 15M14 15H15C15.1326 15 15.2598 14.9473 15.3536 14.8536C15.4473 14.7598 15.5 14.6326 15.5 14.5C15.5 14.3674 15.4473 14.2402 15.3536 14.1464C15.2598 14.0527 15.1326 14 15 14H14C13.8674 14 13.7402 14.0527 13.6464 14.1464C13.5527 14.2402 13.5 14.3674 13.5 14.5C13.5 14.6326 13.5527 14.7598 13.6464 14.8536C13.7402 14.9473 13.8674 15 14 15Z" stroke="#4F4F4F" stroke-width="1.5" stroke-linecap="round" stroke-linejoin="round"/>
    </symbol>
    <symbol id="burger" viewBox="0 0 24 24" fill="none">
        <path d="M10 6H16M10 14H16M10 10H22M10 18H22M4 10C2.89543 10 2 9.10457 2 8C2 6.89543 2.89543 6 4 6C5.10457 6 6 6.89543 6 8C6 9.10457 5.10457 10 4 10ZM4 18C2.89543 18 2 17.1046 2 16C2 14.8954 2.89543 14 4 14C5.10457 14 6 14.8954 6 16C6 17.1046 5.10457 18 4 18Z" stroke="#4F4F4F" stroke-width="1.5" stroke-linecap="round"/>
    </symbol>
    <symbol id="search" viewBox="0 0 24 24" fill="none">
        <path d="M20.001 19.9995L18.401 18.3995M4.00098 11.5995C4.00098 7.40215 7.40361 3.99951 11.601 3.99951C15.7983 3.99951 19.201 7.40215 19.201 11.5995C19.201 15.7969 15.7983 19.1995 11.601 19.1995C7.40361 19.1995 4.00098 15.7969 4.00098 11.5995Z" stroke="#4F4F4F" stroke-width="1.5" stroke-linecap="round" stroke-linejoin="round"/>
    </symbol>
    <symbol id="comparison" viewBox="0 0 24 24" fill="none">
        <path fill-rule="evenodd" clip-rule="evenodd" d="M11 2.25H10.9664C9.59472 2.25 8.51929 2.24999 7.65494 2.32061C6.77479 2.39252 6.04769 2.54138 5.38955 2.87671C4.30762 3.42798 3.42798 4.30762 2.87671 5.38955C2.54138 6.04769 2.39252 6.77479 2.32061 7.65494C2.24999 8.51929 2.25 9.59472 2.25 10.9664V11V13V13.0336C2.25 14.4053 2.24999 15.4807 2.32061 16.3451C2.39252 17.2252 2.54138 17.9523 2.87671 18.6104C3.42798 19.6924 4.30762 20.572 5.38955 21.1233C6.04769 21.4586 6.77479 21.6075 7.65494 21.6794C8.51925 21.75 9.59464 21.75 10.9663 21.75H10.9663H10.9664H10.9664H11H13H13.0336H13.0336H13.0337H13.0337C14.4054 21.75 15.4808 21.75 16.3451 21.6794C17.2252 21.6075 17.9523 21.4586 18.6104 21.1233C19.6924 20.572 20.572 19.6924 21.1233 18.6104C21.4586 17.9523 21.6075 17.2252 21.6794 16.3451C21.75 15.4808 21.75 14.4054 21.75 13.0337V13.0337V13.0336V13.0336V13V11V10.9664V10.9664V10.9663V10.9663C21.75 9.59464 21.75 8.51925 21.6794 7.65494C21.6075 6.77479 21.4586 6.04769 21.1233 5.38955C20.572 4.30762 19.6924 3.42798 18.6104 2.87671C17.9523 2.54138 17.2252 2.39252 16.3451 2.32061C15.4807 2.24999 14.4053 2.25 13.0336 2.25H13H11ZM6.07054 4.21322C6.48197 4.00359 6.9897 3.87996 7.77708 3.81563C8.57322 3.75058 9.58749 3.75 11 3.75H13C14.4125 3.75 15.4268 3.75058 16.2229 3.81563C17.0103 3.87996 17.518 4.00359 17.9295 4.21322C18.7291 4.62068 19.3793 5.27085 19.7868 6.07054C19.9964 6.48197 20.12 6.9897 20.1844 7.77708C20.2494 8.57322 20.25 9.58749 20.25 11V13C20.25 14.4125 20.2494 15.4268 20.1844 16.2229C20.12 17.0103 19.9964 17.518 19.7868 17.9295C19.3793 18.7291 18.7291 19.3793 17.9295 19.7868C17.518 19.9964 17.0103 20.12 16.2229 20.1844C15.4268 20.2494 14.4125 20.25 13 20.25H11C9.58749 20.25 8.57322 20.2494 7.77708 20.1844C6.9897 20.12 6.48197 19.9964 6.07054 19.7868C5.27085 19.3793 4.62068 18.7291 4.21322 17.9295C4.00359 17.518 3.87996 17.0103 3.81563 16.2229C3.75058 15.4268 3.75 14.4125 3.75 13V11C3.75 9.58749 3.75058 8.57322 3.81563 7.77708C3.87996 6.9897 4.00359 6.48197 4.21322 6.07054C4.62068 5.27085 5.27085 4.62068 6.07054 4.21322ZM8.74988 10C8.74988 9.58579 8.41409 9.25 7.99988 9.25C7.58566 9.25 7.24988 9.58579 7.24988 10V16C7.24988 16.4142 7.58566 16.75 7.99988 16.75C8.41409 16.75 8.74988 16.4142 8.74988 16V10ZM11.9999 7.25C12.4141 7.25 12.7499 7.58579 12.7499 8V16C12.7499 16.4142 12.4141 16.75 11.9999 16.75C11.5857 16.75 11.2499 16.4142 11.2499 16V8C11.2499 7.58579 11.5857 7.25 11.9999 7.25ZM16.7499 12C16.7499 11.5858 16.4141 11.25 15.9999 11.25C15.5857 11.25 15.2499 11.5858 15.2499 12V16C15.2499 16.4142 15.5857 16.75 15.9999 16.75C16.4141 16.75 16.7499 16.4142 16.7499 16V12Z" fill="#6A6B70"/>
    </symbol>
    <symbol id="wishlist" viewBox="0 0 24 24" fill="none">
        <path d="M12.6165 5.54256L12 6.20377L11.3835 5.54257C9.46563 3.48583 6.35621 3.48583 4.43838 5.54257C2.57205 7.54408 2.5147 10.7697 4.30854 12.846L9.46223 18.8114C10.8314 20.3962 13.1686 20.3962 14.5377 18.8114L19.6915 12.846C21.4853 10.7697 21.4279 7.54406 19.5616 5.54255C17.6438 3.48581 14.5344 3.48582 12.6165 5.54256Z" stroke="#6A6B70" stroke-width="1.5" stroke-linecap="round" stroke-linejoin="round"/>
    </symbol>
    <symbol id="bag" viewBox="0 0 24 24" fill="none">
        <g clip-path="url(#clip0_241_178)">
        <path d="M18.2476 17.25H10.1476C9.6533 17.251 9.17248 17.0892 8.77936 16.7896C8.38624 16.49 8.10271 16.0693 7.97255 15.5925L6.00005 8.44503C5.96972 8.33378 5.96544 8.21704 5.98755 8.10388C6.00967 7.99071 6.05757 7.88417 6.12755 7.79253C6.20046 7.69765 6.29501 7.6216 6.4033 7.57071C6.51159 7.51983 6.63049 7.49559 6.75005 7.50003H21.0001C21.1102 7.49985 21.2191 7.52395 21.3189 7.57061C21.4187 7.61728 21.507 7.68536 21.5776 7.77003C21.6472 7.85478 21.6974 7.95378 21.7246 8.06004C21.7518 8.1663 21.7554 8.27724 21.7351 8.38503L20.4601 15.405C20.3653 15.9228 20.092 16.3909 19.6878 16.728C19.2835 17.0651 18.7739 17.2499 18.2476 17.25ZM7.74755 9.00003L9.43505 15.195C9.479 15.3586 9.57706 15.5026 9.71325 15.6033C9.84943 15.7041 10.0157 15.7558 10.1851 15.75H18.2851C18.4626 15.7529 18.6355 15.6927 18.7728 15.5801C18.9102 15.4675 19.0031 15.3097 19.0351 15.135L20.1001 9.00003H7.74755Z" fill="#4F4F4F"/>
        <path d="M6.75 9C6.58167 9.00623 6.41614 8.9556 6.28008 8.85628C6.14403 8.75696 6.04537 8.61473 6 8.4525L4.8375 4.2975C4.79213 4.13528 4.69348 3.99305 4.55742 3.89373C4.42137 3.7944 4.25584 3.74378 4.0875 3.75H3C2.80109 3.75 2.61032 3.67098 2.46967 3.53033C2.32902 3.38968 2.25 3.19891 2.25 3C2.25 2.80109 2.32902 2.61032 2.46967 2.46967C2.61032 2.32902 2.80109 2.25 3 2.25H4.1175C4.60755 2.24931 5.08442 2.40863 5.47565 2.70374C5.86687 2.99885 6.15105 3.41362 6.285 3.885L7.5 8.0475C7.53049 8.14599 7.54034 8.2497 7.52895 8.35217C7.51755 8.45464 7.48515 8.55365 7.43378 8.64304C7.3824 8.73242 7.31314 8.81025 7.23034 8.87167C7.14753 8.93309 7.05295 8.97678 6.9525 9C6.88544 9.01092 6.81706 9.01092 6.75 9Z" fill="#4F4F4F"/>
        <path d="M12 21.75C11.7033 21.75 11.4133 21.662 11.1666 21.4972C10.92 21.3324 10.7277 21.0981 10.6142 20.824C10.5006 20.5499 10.4709 20.2483 10.5288 19.9574C10.5867 19.6664 10.7296 19.3991 10.9393 19.1893C11.1491 18.9796 11.4164 18.8367 11.7074 18.7788C11.9983 18.7209 12.2999 18.7506 12.574 18.8642C12.8481 18.9777 13.0824 19.17 13.2472 19.4166C13.412 19.6633 13.5 19.9533 13.5 20.25C13.5 20.6478 13.342 21.0294 13.0607 21.3107C12.7794 21.592 12.3978 21.75 12 21.75Z" fill="#4F4F4F"/>
        <path d="M16.5 21.75C16.2033 21.75 15.9133 21.662 15.6666 21.4972C15.42 21.3324 15.2277 21.0981 15.1142 20.824C15.0006 20.5499 14.9709 20.2483 15.0288 19.9574C15.0867 19.6664 15.2296 19.3991 15.4393 19.1893C15.6491 18.9796 15.9164 18.8367 16.2074 18.7788C16.4983 18.7209 16.7999 18.7506 17.074 18.8642C17.3481 18.9777 17.5824 19.17 17.7472 19.4166C17.912 19.6633 18 19.9533 18 20.25C18 20.6478 17.842 21.0294 17.5607 21.3107C17.2794 21.592 16.8978 21.75 16.5 21.75Z" fill="#4F4F4F"/>
        <path d="M16.5 12.75H12C11.8011 12.75 11.6103 12.671 11.4697 12.5303C11.329 12.3897 11.25 12.1989 11.25 12C11.25 11.8011 11.329 11.6103 11.4697 11.4697C11.6103 11.329 11.8011 11.25 12 11.25H16.5C16.6989 11.25 16.8897 11.329 17.0303 11.4697C17.171 11.6103 17.25 11.8011 17.25 12C17.25 12.1989 17.171 12.3897 17.0303 12.5303C16.8897 12.671 16.6989 12.75 16.5 12.75Z" fill="#4F4F4F"/>
        </g>
        <defs>
        <clipPath id="clip0_241_178">
        <rect width="24" height="24" fill="white"/>
        </clipPath>
        </defs>
    </symbol>
    <symbol id="promo" viewBox="0 0 24 25" fill="none">
        <path d="M11.4268 0.901008C11.771 0.660206 12.229 0.660206 12.5732 0.901008L13.8731 1.81036C14.0951 1.96568 14.3707 2.02426 14.6367 1.97267L16.1941 1.67064C16.6065 1.59066 17.0249 1.77696 17.2414 2.13694L18.059 3.49638C18.1987 3.72859 18.4266 3.89418 18.6906 3.95525L20.2362 4.31277C20.6454 4.40744 20.9519 4.74782 21.0033 5.16475L21.1973 6.73922C21.2304 7.00815 21.3713 7.25213 21.5876 7.4153L22.8542 8.37055C23.1895 8.6235 23.3311 9.0591 23.2084 9.46088L22.7453 10.9781C22.6662 11.2373 22.6956 11.5175 22.8269 11.7545L23.5954 13.1423C23.7989 13.5098 23.751 13.9653 23.4755 14.2825L22.4353 15.4802C22.2576 15.6848 22.1706 15.9527 22.1941 16.2227L22.3316 17.8031C22.3681 18.2216 22.1391 18.6182 21.7584 18.7959L20.321 19.467C20.0754 19.5816 19.8869 19.791 19.7986 20.0471L19.2815 21.5468C19.1445 21.944 18.774 22.2132 18.354 22.2207L16.7678 22.2491C16.4969 22.2539 16.2396 22.3685 16.0547 22.5666L14.9723 23.7263C14.6856 24.0335 14.2376 24.1287 13.8509 23.9647L12.3903 23.3455C12.1409 23.2397 11.8591 23.2397 11.6097 23.3455L10.1491 23.9647C9.76237 24.1287 9.31437 24.0335 9.02774 23.7263L7.94533 22.5666C7.76044 22.3685 7.50308 22.2539 7.23215 22.2491L5.64603 22.2207C5.22602 22.2132 4.85547 21.944 4.71854 21.5469L4.20142 20.0471C4.11309 19.791 3.92458 19.5816 3.67905 19.467L2.24159 18.7959C1.86094 18.6182 1.63193 18.2216 1.66837 17.8031L1.80595 16.2227C1.82945 15.9527 1.74239 15.6848 1.56471 15.4802L0.524467 14.2825C0.249004 13.9653 0.201129 13.5098 0.40463 13.1423L1.17312 11.7545C1.30439 11.5175 1.33384 11.2373 1.25473 10.9781L0.791567 9.46088C0.66892 9.0591 0.810455 8.6235 1.14584 8.37055L2.41236 7.4153C2.6287 7.25213 2.76956 7.00815 2.8027 6.73922L2.99671 5.16475C3.04808 4.74782 3.35455 4.40744 3.76383 4.31277L5.30939 3.95525C5.57339 3.89418 5.80131 3.72859 5.94097 3.49638L6.7586 2.13694C6.97511 1.77696 7.39353 1.59066 7.80593 1.67064L9.36329 1.97267C9.6293 2.02426 9.90487 1.96568 10.1269 1.81036L11.4268 0.901008Z" fill="#E84E1B"/>
        <path d="M12.5106 15.382V14.8957C12.5106 14.5475 12.5931 14.2293 12.7581 13.9411C12.9265 13.6499 13.1705 13.4173 13.4902 13.2432C13.8133 13.066 14.2034 12.9775 14.6606 12.9775C15.128 12.9775 15.5199 13.0645 15.8361 13.2387C16.1523 13.4128 16.3912 13.6454 16.5527 13.9366C16.7177 14.2278 16.8002 14.5475 16.8002 14.8957V15.382C16.8002 15.7302 16.7177 16.0499 16.5527 16.3411C16.3877 16.6293 16.1454 16.8619 15.8258 17.039C15.5095 17.2131 15.1211 17.3002 14.6606 17.3002C14.1965 17.3002 13.8047 17.2131 13.4851 17.039C13.1654 16.8619 12.9231 16.6293 12.7581 16.3411C12.5931 16.0499 12.5106 15.7302 12.5106 15.382ZM13.7119 14.8957V15.382C13.7119 15.6402 13.7824 15.8743 13.9233 16.0844C14.0642 16.2946 14.31 16.3996 14.6606 16.3996C15.0077 16.3996 15.25 16.2946 15.3875 16.0844C15.525 15.8743 15.5938 15.6402 15.5938 15.382V14.8957C15.5938 14.6375 15.5267 14.4034 15.3927 14.1933C15.2621 13.9831 15.018 13.8781 14.6606 13.8781C14.3168 13.8781 14.0728 13.9831 13.9284 14.1933C13.7841 14.4034 13.7119 14.6375 13.7119 14.8957ZM7.2002 10.1047V9.61839C7.2002 9.27018 7.28269 8.95048 7.44767 8.65929C7.61609 8.36811 7.86013 8.13547 8.17979 7.96136C8.50288 7.78725 8.893 7.7002 9.35014 7.7002C9.8176 7.7002 10.2094 7.78725 10.5257 7.96136C10.8419 8.13547 11.0808 8.36811 11.2423 8.65929C11.4038 8.95048 11.4846 9.27018 11.4846 9.61839V10.1047C11.4846 10.4529 11.4021 10.7726 11.2371 11.0638C11.0756 11.352 10.835 11.5846 10.5153 11.7617C10.1991 11.9358 9.81072 12.0229 9.35014 12.0229C8.88269 12.0229 8.48913 11.9358 8.16948 11.7617C7.85326 11.5846 7.61266 11.352 7.44767 11.0638C7.28269 10.7726 7.2002 10.4529 7.2002 10.1047ZM8.40664 9.61839V10.1047C8.40664 10.3629 8.47538 10.597 8.61287 10.8071C8.75379 11.0173 8.99955 11.1223 9.35014 11.1223C9.69386 11.1223 9.93446 11.0173 10.0719 10.8071C10.2129 10.597 10.2833 10.3629 10.2833 10.1047V9.61839C10.2833 9.36023 10.2163 9.12609 10.0823 8.91596C9.94821 8.70582 9.70417 8.60076 9.35014 8.60076C9.00643 8.60076 8.76239 8.70582 8.61803 8.91596C8.4771 9.12609 8.40664 9.36023 8.40664 9.61839ZM7.68999 17.1111L14.9493 7.88931H16.1815L8.92221 17.1111H7.68999Z" fill="white"/>
    </symbol>
    <symbol id="365" viewBox="0 0 50 50" fill="none">
        <g clip-path="url(#clip0_477_22575)">
        <path d="M10.1465 0.322266C9.9707 0.439453 9.7168 0.693359 9.58984 0.878906L9.36523 1.21094L9.39453 4.84375C9.42383 8.33984 9.43359 8.49609 9.62891 8.75977C9.86328 9.08203 10.5762 9.47266 10.9375 9.47266C11.4258 9.47266 12.041 9.0625 12.2852 8.59375C12.5 8.1543 12.5098 8.13477 12.4805 4.61914C12.4512 1.21094 12.4414 1.07422 12.2461 0.810547C11.709 0.0878906 10.8105 -0.126953 10.1465 0.322266Z" fill="#A5A8AD"/>
        <path d="M19.5312 0.312536C19.3555 0.439489 19.1113 0.664099 19.0039 0.810583C18.8086 1.08402 18.7988 1.19144 18.7988 4.77543V8.46683L19.0625 8.80863C19.7656 9.7266 21.1621 9.60941 21.6797 8.59379C21.875 8.21293 21.8848 8.07621 21.8555 4.63871C21.8262 1.21097 21.8164 1.07425 21.6211 0.810583C21.2793 0.341833 20.8203 0.0976925 20.3125 0.0976925C20 0.0976925 19.7559 0.166052 19.5312 0.312536Z" fill="#A5A8AD"/>
        <path d="M28.9064 0.312536C28.7306 0.439489 28.4865 0.664099 28.3791 0.810583C28.1838 1.07425 28.174 1.21097 28.1447 4.63871C28.1154 8.07621 28.1252 8.21293 28.3205 8.59379C28.838 9.60941 30.2345 9.7266 30.9377 8.80863L31.2013 8.46683V4.77543C31.2013 1.19144 31.1916 1.08402 30.9962 0.810583C30.6545 0.341833 30.1955 0.0976925 29.6877 0.0976925C29.3752 0.0976925 29.131 0.166052 28.9064 0.312536Z" fill="#A5A8AD"/>
        <path d="M38.2816 0.3125C38.1058 0.439453 37.8617 0.664062 37.7542 0.810547C37.5589 1.07422 37.5492 1.21094 37.5199 4.61914C37.4906 8.13477 37.5003 8.1543 37.7152 8.59375C37.9593 9.0625 38.5746 9.47266 39.0628 9.47266C39.4242 9.47266 40.1371 9.08203 40.3714 8.75977C40.5667 8.48633 40.5765 8.35938 40.5765 4.78516C40.5765 1.19141 40.5667 1.08398 40.3714 0.810547C40.0296 0.341797 39.5707 0.0976562 39.0628 0.0976562C38.7503 0.0976562 38.5062 0.166016 38.2816 0.3125Z" fill="#A5A8AD"/>
        <path d="M3.61338 3.83812C2.00205 4.385 0.888772 5.47875 0.263772 7.10961L0.0489282 7.66625L0.0196314 26.4455C-0.00966551 47.1194 -0.0389624 45.8303 0.595803 47.0901C1.01573 47.9202 1.9044 48.8284 2.72471 49.258C4.05283 49.9514 2.32432 49.9026 25.0001 49.9026C43.0665 49.9026 45.5372 49.883 46.045 49.7561C47.9103 49.2776 49.4142 47.7444 49.8536 45.8889C50.0685 44.9514 50.0685 8.57445 49.8536 7.63695C49.4435 5.89867 48.2813 4.56078 46.6017 3.88695C46.0841 3.68187 45.879 3.66234 43.7208 3.63305L41.3868 3.60375L41.4454 5.53734C41.4845 6.6018 41.5138 7.64672 41.5235 7.87133C41.5431 8.71117 41.0157 9.55101 40.1954 9.99047C39.629 10.2834 38.4962 10.2834 37.9298 9.99047C37.0216 9.50219 36.5626 8.63305 36.67 7.55883C36.6993 7.18773 36.7481 6.15258 36.7774 5.24437L36.8263 3.61351H34.3751H31.9337V5.06859C31.9337 6.07445 31.9825 6.70922 32.0899 7.11937C32.5196 8.82836 31.1817 10.4006 29.4337 10.2248C28.5255 10.1272 27.7442 9.55101 27.3829 8.71117C27.2071 8.29125 27.1778 7.30492 27.3341 6.90453C27.3927 6.74828 27.4415 5.98656 27.4415 5.11742V3.61351H25.0001H22.5587V5.11742C22.5587 5.9768 22.6075 6.74828 22.6661 6.90453C22.8224 7.30492 22.7931 8.29125 22.6173 8.71117C22.0118 10.137 20.2052 10.6936 18.9356 9.83422C18.047 9.23851 17.6466 8.17406 17.9103 7.11937C18.0177 6.70922 18.0665 6.07445 18.0665 5.06859V3.61351H15.6153H13.1739L13.2228 5.2932C13.2521 6.22094 13.3009 7.26586 13.3302 7.60765C13.4376 8.62328 12.9689 9.51195 12.0704 9.99047C11.504 10.2834 10.3712 10.2834 9.80479 9.99047C8.98448 9.55101 8.45713 8.71117 8.47666 7.87133C8.48643 7.64672 8.51573 6.6018 8.55479 5.53734L8.61338 3.61351H6.42588C4.43369 3.61351 4.18955 3.63305 3.61338 3.83812ZM45.1661 14.1116C46.2501 14.3948 47.256 15.2834 47.7052 16.3772C47.9005 16.8362 47.9005 17.1487 47.9298 30.5569C47.9396 39.5803 47.92 44.4534 47.8517 44.8049C47.7052 45.5959 47.3927 46.1721 46.7774 46.7873C46.4063 47.1584 46.0548 47.4026 45.6544 47.5686L45.0685 47.803L25.254 47.8323C3.21299 47.8616 4.75596 47.9006 3.71104 47.1877C3.07627 46.758 2.50987 46.0354 2.27549 45.3616C2.10948 44.9026 2.09971 43.9651 2.09971 30.9084C2.09971 17.8518 2.10948 16.9143 2.27549 16.4553C2.64658 15.4006 3.71104 14.4045 4.78526 14.1213C5.61533 13.8967 44.3067 13.8967 45.1661 14.1116Z" fill="#A5A8AD"/>
        <path d="M11.9631 24.9609C10.3323 25.3223 9.08227 26.4844 8.75024 27.9492L8.69165 28.2227H10.0979H11.5041L11.6213 27.9395C11.8948 27.2754 12.6565 26.8945 13.5256 26.9824C14.5022 27.0801 14.9612 27.4902 14.9612 28.2617C14.9612 29.1211 14.5706 29.3945 13.262 29.4727L12.4026 29.5215V30.5664V31.6113L13.3401 31.6797C14.8928 31.7871 15.3518 32.1094 15.4104 33.1348C15.469 34.2383 14.8635 34.7656 13.5452 34.7656C12.3733 34.7656 11.7874 34.4727 11.426 33.7402L11.2112 33.3008H9.87329C9.1311 33.3008 8.5061 33.3301 8.4768 33.3594C8.38891 33.4375 8.63305 34.2676 8.87719 34.7363C9.34594 35.6641 10.3323 36.4453 11.4456 36.7773C12.3147 37.0312 14.5413 37.0312 15.3811 36.7773C17.217 36.2207 18.2034 35.166 18.3303 33.623C18.4377 32.3145 17.8811 31.2598 16.7678 30.6934L16.2893 30.459L16.592 30.293C17.4416 29.834 17.8713 29.1113 17.8616 28.125C17.8616 26.6504 17.0022 25.5859 15.4299 25.0879C14.5608 24.8145 12.8909 24.7559 11.9631 24.9609Z" fill="#A5A8AD"/>
        <path d="M23.6426 25.0003C22.2852 25.3616 21.2988 26.1721 20.6836 27.4514C20.1172 28.6135 19.9805 29.3264 19.9805 31.0061C19.9805 33.135 20.3516 34.4143 21.2891 35.469C22.7148 37.0901 25.4688 37.4807 27.7051 36.3772C29.6094 35.4397 30.4492 33.1643 29.668 31.0647C29.375 30.303 28.4863 29.4143 27.6855 29.1018C26.4258 28.6135 24.3457 28.7503 23.457 29.385C22.793 29.8733 22.8125 29.8733 22.8809 29.2678C22.9785 28.2717 23.5156 27.3733 24.1895 27.0901C24.9805 26.7483 26.2402 27.0315 26.5918 27.637L26.7676 27.9299H28.1348C29.707 27.9299 29.668 27.9592 29.209 26.9827C28.8672 26.2698 28.3594 25.7424 27.666 25.3616C26.6309 24.8049 24.9707 24.6585 23.6426 25.0003ZM26.0547 31.1233C26.6992 31.3479 26.9922 31.8069 27.0312 32.6663C27.0703 33.4085 26.9043 33.9358 26.4941 34.2971C25.8105 34.9124 24.2871 34.9124 23.6035 34.2971C23.1055 33.8577 22.8223 32.7444 23.0371 32.0999C23.1934 31.6311 23.8184 31.0842 24.2871 31.0061C24.4922 30.9671 24.7266 30.928 24.8047 30.9182C25.0586 30.8792 25.6152 30.9671 26.0547 31.1233Z" fill="#A5A8AD"/>
        <path d="M32.9688 25.4592C32.9395 25.6643 32.8027 26.5725 32.6563 27.4807C32.5195 28.3889 32.3047 29.7268 32.1777 30.4592C32.0508 31.1819 31.9531 31.7971 31.9727 31.8069C31.9824 31.8166 32.5195 31.8947 33.1543 31.9631L34.3164 32.0998L34.8145 31.592C35.2246 31.1721 35.4004 31.0647 35.8203 30.967C36.4648 30.8303 36.6797 30.8303 37.3047 30.967C38.1934 31.1526 38.7598 31.885 38.7695 32.842C38.7695 34.0529 38.0273 34.7658 36.7578 34.7658C36.3965 34.7658 35.9277 34.717 35.7129 34.6487C35.2637 34.5119 34.6973 34.0041 34.6094 33.6428L34.5508 33.3987H33.1348H31.7188L31.7871 33.7112C32.1094 35.2541 33.457 36.4944 35.2051 36.8654C37.7734 37.4026 40.2441 36.5139 41.1133 34.7365C42.207 32.4709 41.2891 29.8049 39.1406 29.0432C38.0566 28.6623 36.2988 28.7014 35.4297 29.1311L34.9609 29.3654L35.0195 28.8674C35.0586 28.594 35.1367 28.135 35.1953 27.8322L35.3027 27.2951L38.0664 27.2658C39.5801 27.2561 40.8203 27.2072 40.8203 27.1682C40.8203 27.1291 40.8887 26.6799 40.9668 26.1721C41.0449 25.6643 41.1133 25.2151 41.1133 25.1662C41.1133 25.1272 39.2969 25.0979 37.0703 25.0979H33.0273L32.9688 25.4592Z" fill="#A5A8AD"/>
        </g>
        <defs>
        <clipPath id="clip0_477_22575">
        <rect width="50" height="50" fill="white"/>
        </clipPath>
        </defs>
    </symbol>
    <symbol id="location" viewBox="0 0 50 50" fill="none">
        <g clip-path="url(#clip0_477_22588)">
        <path d="M23.0291 0.560711C20.745 1.15202 18.832 2.70564 17.8001 4.79259C17.174 6.07955 16.9653 6.99549 16.9653 8.3868C16.9885 12.2477 18.9943 16.0622 23.0175 19.9578C24.4204 21.3027 24.7566 21.5114 25.2668 21.3839C25.6842 21.2795 27.1682 19.9462 28.2001 18.752C30.519 16.0622 31.9798 13.6042 32.7219 11.1694C32.9885 10.2767 33.0349 9.91723 33.0349 8.67665C33.0465 6.9723 32.8726 6.16071 32.2001 4.79259C30.5421 1.43028 26.6465 -0.366825 23.0291 0.560711ZM26.3334 3.59839C28.5132 4.14332 29.9392 6.47375 29.545 8.81578C29.1856 10.868 27.7943 12.2477 25.7305 12.6187C24.861 12.7694 23.8639 12.6303 22.9479 12.2129C21.1624 11.4129 20.1074 9.30274 20.4552 7.26216C20.9421 4.44477 23.4581 2.87955 26.3334 3.59839Z" fill="#A5A8AD"/>
        <path d="M24.2116 5.36066C23.5276 5.58095 22.971 6.03313 22.6 6.6824C22.3334 7.13458 22.2754 7.36646 22.2754 8.03893C22.2754 8.72298 22.3334 8.94327 22.6 9.40704C23.2377 10.4853 24.4435 11.0302 25.5797 10.7636C27.5739 10.2882 28.4087 7.96936 27.1681 6.33458C26.4957 5.45342 25.2319 5.03603 24.2116 5.36066Z" fill="#A5A8AD"/>
        <path d="M9.15074 16.781C5.25509 17.9636 2.08987 18.9723 2.13625 19.0071C2.24059 19.1114 24.8261 26.2998 25.0232 26.2998C25.1044 26.2998 27.5971 25.523 30.5652 24.5723C33.5334 23.6215 38.6232 21.9984 41.8696 20.9665C45.1276 19.9346 47.8174 19.0534 47.8638 19.0071C47.9102 18.9723 46.9478 18.636 45.7189 18.265C44.4899 17.894 41.2667 16.9201 38.5536 16.0853C35.829 15.2621 33.5449 14.5897 33.4754 14.5897C33.4058 14.5897 33.1971 14.8911 33.0116 15.2621C31.8522 17.5462 27.771 22.2302 26.287 22.9723C25.5102 23.3549 24.6058 23.3897 23.887 23.065C22.4029 22.3926 18.4145 17.9288 17.116 15.494C16.7913 14.8911 16.571 14.5897 16.4435 14.6013C16.3391 14.6128 13.058 15.5868 9.15074 16.781Z" fill="#A5A8AD"/>
        <path d="M17.7181 27.4461L17.7181 27.4462C17.6157 27.3218 17.4925 27.2413 17.4163 27.1955C17.3279 27.1424 17.2274 27.0925 17.1216 27.0448C16.9094 26.9492 16.6204 26.8377 16.2451 26.7045C15.4911 26.437 14.3251 26.0593 12.5866 25.5145M17.7181 27.4461L12.5866 25.5145M17.7181 27.4461L17.7248 27.4544C17.9637 27.753 18.0291 28.0772 18.0611 28.518C18.0925 28.9514 18.0978 29.6499 18.0978 30.8215C18.0978 32.0504 18.0956 32.7541 18.0605 33.1814C18.0426 33.3998 18.0128 33.6002 17.947 33.7854C17.8743 33.9903 17.7745 34.1292 17.6914 34.2332C17.5561 34.4042 17.3837 34.5674 17.1488 34.6782C16.9155 34.7881 16.6806 34.8179 16.4667 34.8179C16.3677 34.8179 16.2696 34.7994 16.2249 34.7909C16.1612 34.7787 16.0873 34.7623 16.0074 34.7432C15.8466 34.7049 15.6363 34.65 15.3857 34.5816C14.8831 34.4444 14.1972 34.2471 13.3771 34.0045C11.7358 33.5189 9.54328 32.8481 7.1755 32.1052L7.17549 32.1052L7.1701 32.1035C6.97485 32.0406 6.69611 31.9379 6.46276 31.7003C6.22138 31.4546 6.10883 31.1503 6.04735 30.8448C5.93491 30.2861 5.9375 29.3855 5.9544 27.9604L5.95442 27.9594L5.9892 25.3391L5.9937 25.0002L6.25104 24.7796L6.57257 24.504M17.7181 27.4461L6.57257 24.504M12.5866 25.5145C11.3267 25.1197 10.1558 24.7594 9.28574 24.4975C8.85113 24.3667 8.48929 24.2597 8.22814 24.1851C8.09819 24.148 7.98917 24.1177 7.90706 24.0963C7.86667 24.0857 7.8271 24.0758 7.79228 24.068C7.77524 24.0642 7.75319 24.0596 7.72949 24.0554L7.72807 24.0552C7.71466 24.0528 7.65593 24.0425 7.58551 24.0425C7.43171 24.0425 7.30148 24.0838 7.23298 24.1082C7.15014 24.1377 7.07053 24.1748 6.99935 24.2125C6.859 24.287 6.70765 24.3872 6.57446 24.5024M12.5866 25.5145L6.57446 24.5024M6.57446 24.5024C6.57383 24.5029 6.5732 24.5035 6.57257 24.504M6.57446 24.5024L6.57257 24.504M12.6918 46.4968L12.6919 46.4968C16.6516 47.6734 20.1997 48.724 22.2361 49.327C22.6706 49.4557 23.0363 49.564 23.3225 49.6487V39.32V28.5289L12.7953 25.1708L12.7951 25.1707C7.67678 23.5364 3.18762 22.1034 1.75 21.6468V32.0273C1.75 37.376 1.75293 40.2227 1.77888 41.7625C1.79146 42.509 1.80924 42.924 1.83158 43.1615C1.89169 43.185 1.96496 43.2125 2.05337 43.2444C2.41967 43.3765 2.99235 43.565 3.84448 43.8319C5.54551 44.3647 8.3198 45.1979 12.6918 46.4968Z" stroke="#A5A8AD" stroke-width="1.5"/>
        <path d="M8.55935 28.3985L8.59413 29.8245L12.0492 30.8796L15.4927 31.9463V30.5434V29.1405L12.1536 28.1086C10.3217 27.5405 8.75645 27.0535 8.67529 27.0188C8.55935 26.984 8.53616 27.2738 8.55935 28.3985Z" fill="#A5A8AD"/>
        <path d="M37.6684 25.0197L37.6684 25.0197L26.6772 28.5284V39.3197C26.6772 44.8141 26.6802 47.6392 26.7075 49.0838C26.7117 49.301 26.7163 49.4831 26.7213 49.6354C26.7745 49.6197 26.8302 49.6032 26.8882 49.5861C27.4788 49.4117 28.3182 49.1635 29.345 48.8599C29.6683 48.7643 30.0101 48.6633 30.3685 48.5572C32.2872 47.9899 34.683 47.2814 37.262 46.5195C41.7034 45.2033 44.4861 44.3673 46.1779 43.836C47.0255 43.5699 47.589 43.3835 47.947 43.2533C48.0339 43.2217 48.1055 43.1945 48.1639 43.1714C48.1873 42.9403 48.2061 42.5327 48.2194 41.7889C48.2468 40.2569 48.2497 37.4107 48.2497 32.027C48.2497 28.8911 48.2468 26.0395 48.2425 23.9735C48.2404 23.011 48.2381 22.2195 48.2356 21.6493C47.6492 21.8355 46.8168 22.1005 45.7971 22.4256C43.706 23.0922 40.8279 24.011 37.6684 25.0197Z" stroke="#A5A8AD" stroke-width="1.5"/>
        </g>
        <defs>
        <clipPath id="clip0_477_22588">
        <rect width="50" height="50" fill="white"/>
        </clipPath>
        </defs>
    </symbol>
    <symbol id="pallet" viewBox="0 0 50 50" fill="none">
        <path d="M4.15039 1.80664L3.90625 2.04102V20.9473V39.8438H2.97852C2.11914 39.8438 2.02148 39.8633 1.80664 40.0879L1.5625 40.3223V44.1406V47.959L1.80664 48.1934L2.04102 48.4375H4.6875H7.33398L7.56836 48.1934C7.8125 47.959 7.8125 47.9297 7.8125 46.2402V44.5312H14.8438H21.875V46.2402C21.875 47.9297 21.875 47.959 22.1191 48.1934L22.3535 48.4375H25H27.6465L27.8809 48.1934C28.125 47.959 28.125 47.9297 28.125 46.2402V44.5312H35.1562H42.1875V46.2402C42.1875 47.9297 42.1875 47.959 42.4316 48.1934L42.666 48.4375H45.3125H47.959L48.1934 48.1934L48.4375 47.959V44.1406V40.3223L48.1934 40.0879C47.9785 39.8633 47.8809 39.8438 47.0215 39.8438H46.0938V20.9473V2.04102L45.8496 1.80664L45.6152 1.5625H25H4.38477L4.15039 1.80664ZM11.7188 6.05469C11.7188 7.98828 11.7578 9.05273 11.8262 9.20898C11.9336 9.45312 12.2852 9.66797 12.5488 9.66797C12.627 9.66797 13.1738 9.33594 13.7695 8.93555L14.8438 8.20312L15.918 8.93555C16.5137 9.33594 17.0898 9.66797 17.1973 9.66797C17.3047 9.66797 17.5293 9.54102 17.6855 9.38477L17.9688 9.10156V6.11328V3.125H21.0938H24.2188V11.7188V20.3125H14.8438H5.46875V11.7188V3.125H8.59375H11.7188V6.05469ZM32.0312 6.05469C32.0312 7.98828 32.0703 9.05273 32.1387 9.20898C32.2461 9.45312 32.5977 9.66797 32.8613 9.66797C32.9395 9.66797 33.4863 9.33594 34.082 8.93555L35.1562 8.20312L36.2305 8.93555C36.8262 9.33594 37.4023 9.66797 37.5098 9.66797C37.6172 9.66797 37.8418 9.54102 37.998 9.38477L38.2812 9.10156V6.11328V3.125H41.4062H44.5312V11.7188V20.3125H35.1562H25.7812V11.7188V3.125H28.9062H32.0312V6.05469ZM11.7188 24.9902C11.7188 28.0957 11.7188 28.1152 11.9434 28.3594C12.1484 28.584 12.334 28.6523 12.6953 28.623C12.7832 28.623 13.3008 28.2812 13.8477 27.8809L14.8438 27.1484L15.7812 27.832C16.8457 28.623 17.0898 28.7402 17.4219 28.6133C17.959 28.4082 17.9688 28.3398 17.9688 24.9805V21.875H21.0938H24.2188V30.8594V39.8438H14.8438H5.46875V30.8594V21.875H8.59375H11.7188V24.9902ZM32.0312 24.9902C32.0312 28.0957 32.0312 28.1152 32.2559 28.3594C32.4609 28.584 32.6465 28.6523 33.0078 28.623C33.0957 28.623 33.6133 28.2812 34.1602 27.8809L35.1562 27.1484L36.0938 27.832C37.1582 28.623 37.4023 28.7402 37.7344 28.6133C38.2715 28.4082 38.2812 28.3398 38.2812 24.9805V21.875H41.4062H44.5312V30.8594V39.8438H35.1562H25.7812V30.8594V21.875H28.9062H32.0312V24.9902Z" fill="#A5A8AD"/>
    </symbol>
    <symbol id="arrow_right" viewBox="0 0 32 32" fill="none">
        <path fill-rule="evenodd" clip-rule="evenodd" d="M12.7093 8.55315C12.2781 8.89816 12.2081 9.52745 12.5532 9.95872L17.3867 16.0007L12.5532 22.0427C12.2081 22.4739 12.2781 23.1032 12.7093 23.4482C13.1406 23.7932 13.7699 23.7233 14.1149 23.2921L19.4482 16.6254C19.7404 16.2602 19.7404 15.7412 19.4482 15.376L14.1149 8.70933C13.7699 8.27806 13.1406 8.20814 12.7093 8.55315Z" fill="#2D88D6"/>
    </symbol>
    <symbol id="arrow_left" viewBox="0 0 32 32" fill="none">
        <path fill-rule="evenodd" clip-rule="evenodd" d="M19.2907 8.55315C19.7219 8.89816 19.7919 9.52745 19.4468 9.95872L14.6133 16.0007L19.4468 22.0427C19.7919 22.4739 19.7219 23.1032 19.2907 23.4482C18.8594 23.7932 18.2301 23.7233 17.8851 23.2921L12.5518 16.6254C12.2596 16.2602 12.2596 15.7412 12.5518 15.376L17.8851 8.70933C18.2301 8.27806 18.8594 8.20814 19.2907 8.55315Z" fill="#2D88D6"/>
    </symbol>
    <symbol id="minus" viewBox="0 0 24 24" fill="none">
        <path d="M16 12H8M18 2H6C3.79086 2 2 3.79086 2 6V18C2 20.2091 3.79086 22 6 22H18C20.2091 22 22 20.2091 22 18V6C22 3.79086 20.2091 2 18 2Z" stroke="#28303F" stroke-width="1.5" stroke-linecap="round" stroke-linejoin="round"/>
    </symbol>
    <symbol id="plus" viewBox="0 0 24 24" fill="none">
        <path d="M12 8V16M16 12H8M18 2H6C3.79086 2 2 3.79086 2 6V18C2 20.2091 3.79086 22 6 22H18C20.2091 22 22 20.2091 22 18V6C22 3.79086 20.2091 2 18 2Z" stroke="#28303F" stroke-width="1.5" stroke-linecap="round" stroke-linejoin="round"/>
    </symbol>
</svg>