<svg width="32" height="32" viewBox="0 0 32 32" fill="none" xmlns="http://www.w3.org/2000/svg">
<g clip-path="url(#clip0_114_14214)">
<path opacity="0.976" fill-rule="evenodd" clip-rule="evenodd" d="M9.03125 1.03125C11.2814 1.02083 13.5314 1.03125 15.7813 1.0625C16.7847 1.37069 17.2118 2.04778 17.0625 3.09375C16.8646 3.70833 16.4583 4.11458 15.8438 4.3125C13.5313 4.35417 11.2188 4.35417 8.90625 4.3125C7.88957 3.93553 7.50419 3.21678 7.75 2.15625C7.97632 1.54409 8.40338 1.16909 9.03125 1.03125Z" fill="#2D88D6"/>
<path opacity="0.954" fill-rule="evenodd" clip-rule="evenodd" d="M1.59375 1.71875C3.05208 1.71875 4.51042 1.71875 5.96875 1.71875C5.80209 2.36466 5.80209 3.01049 5.96875 3.65625C4.48943 3.66666 3.01027 3.65625 1.53125 3.625C0.884097 3.30872 0.70701 2.81914 0.999997 2.15625C1.15806 1.94469 1.35597 1.79886 1.59375 1.71875Z" fill="#2D88D6"/>
<path opacity="0.953" fill-rule="evenodd" clip-rule="evenodd" d="M18.7812 1.71875C20.2398 1.70834 21.6981 1.71875 23.1562 1.75C23.9069 2.0853 24.084 2.61655 23.6875 3.34375C23.5464 3.46435 23.3901 3.5581 23.2188 3.625C21.7397 3.65625 20.2606 3.66666 18.7812 3.65625C18.9479 3.01042 18.9479 2.36458 18.7812 1.71875Z" fill="#2D88D6"/>
<path opacity="0.943" fill-rule="evenodd" clip-rule="evenodd" d="M8.96875 6.15625C11.1354 6.15625 13.3021 6.15625 15.4688 6.15625C15.4688 6.82294 15.4688 7.48956 15.4688 8.15625C13.3021 8.15625 11.1354 8.15625 8.96875 8.15625C8.96875 7.48956 8.96875 6.82294 8.96875 6.15625Z" fill="#2D88D6"/>
<path opacity="0.991" fill-rule="evenodd" clip-rule="evenodd" d="M6.53125 9.96885C10.3683 9.93829 14.2016 9.96954 18.0313 10.0626C18.2146 10.2041 18.35 10.3812 18.4375 10.5939C18.4792 12.8022 18.4792 15.0105 18.4375 17.2189C18.3213 17.5017 18.1234 17.6996 17.8438 17.8126C14.1146 17.8543 10.3854 17.8543 6.65625 17.8126C6.3125 17.7189 6.09375 17.5001 6 17.1564C5.95833 14.9272 5.95833 12.698 6 10.4689C6.12961 10.2453 6.30669 10.0786 6.53125 9.96885Z" fill="#2D88D6"/>
<path opacity="0.985" fill-rule="evenodd" clip-rule="evenodd" d="M-0.03125 15.9688C-0.03125 14.3854 -0.03125 12.8021 -0.03125 11.2188C0.101366 10.9509 0.3097 10.753 0.59375 10.625C1.76023 10.5938 2.9269 10.5833 4.09375 10.5938C4.09375 12.5938 4.09375 14.5938 4.09375 16.5938C2.9269 16.6042 1.76023 16.5938 0.59375 16.5625C0.3097 16.4345 0.101366 16.2366 -0.03125 15.9688Z" fill="#2D88D6"/>
<path opacity="0.988" fill-rule="evenodd" clip-rule="evenodd" d="M31.9688 18.0313C31.9688 18.9479 31.9688 19.8646 31.9688 20.7813C31.8092 21.0135 31.6009 21.1906 31.3438 21.3125C29.3438 21.3542 27.3438 21.3542 25.3438 21.3125C25.0357 21.1921 24.8379 20.9733 24.75 20.6563C24.7292 19.5313 24.7083 18.4063 24.6875 17.2813C24.5668 16.9314 24.3273 16.7126 23.9688 16.625C22.7606 16.5938 21.5523 16.5833 20.3438 16.5938C20.3438 14.5938 20.3438 12.5938 20.3438 10.5938C21.8668 10.5669 23.3876 10.5982 24.9062 10.6875C28.0158 11.2973 30.1929 13.0577 31.4375 15.9688C31.6831 16.6473 31.8603 17.3348 31.9688 18.0313Z" fill="#2D88D6"/>
<path opacity="0.976" fill-rule="evenodd" clip-rule="evenodd" d="M28.0313 23.2188C28.3611 23.1833 28.6736 23.2354 28.9688 23.3751C29.6264 24.0972 30.2618 24.8368 30.875 25.5938C31.8453 27.0039 31.8245 28.3997 30.8125 29.7813C29.3595 31.1689 27.8283 31.2626 26.2188 30.0626C25.0822 28.8359 24.8843 27.4713 25.625 25.9688C26.235 25.1865 26.86 24.4157 27.5 23.6563C27.6526 23.4717 27.8297 23.3259 28.0313 23.2188Z" fill="#2D88D6"/>
</g>
<defs>
<clipPath id="clip0_114_14214">
<rect width="32" height="32" fill="white"/>
</clipPath>
</defs>
</svg>
