<svg width="24" height="24" viewBox="0 0 24 24" fill="none" xmlns="http://www.w3.org/2000/svg">
<path fill-rule="evenodd" clip-rule="evenodd" d="M11.2474 1.07902C11.7419 0.970406 12.2542 0.970406 12.7488 1.07902C13.3089 1.20201 13.8239 1.51119 14.6445 2.00376L14.6445 2.00376L14.6446 2.00377L14.7249 2.05199L19.9249 5.17199L20.0007 5.21743L20.0007 5.21744C20.7778 5.68354 21.2658 5.97619 21.6265 6.38639C21.9451 6.74877 22.1854 7.17313 22.3322 7.63281C22.4984 8.15315 22.4982 8.72214 22.4981 9.62838L22.4981 9.7167V14.2813L22.4981 14.3696C22.4982 15.2758 22.4984 15.8448 22.3322 16.3652C22.1854 16.8248 21.9451 17.2492 21.6265 17.6116C21.2658 18.0218 20.7778 18.3144 20.0007 18.7805L20.0007 18.7805L19.9249 18.826L14.7249 21.946L14.6445 21.9942C13.8239 22.4868 13.3089 22.796 12.7488 22.919C12.2542 23.0276 11.7419 23.0276 11.2474 22.919C10.6873 22.796 10.1722 22.4868 9.35158 21.9942L9.27124 21.946L4.07124 18.826L3.99548 18.7805C3.21831 18.3144 2.73036 18.0218 2.36967 17.6116C2.05102 17.2492 1.81075 16.8248 1.66395 16.3652C1.49778 15.8448 1.49789 15.2758 1.49806 14.3696L1.49807 14.2813V9.7167L1.49806 9.62837C1.49789 8.72213 1.49778 8.15315 1.66395 7.63281C1.81075 7.17313 2.05102 6.74877 2.36967 6.38639C2.73036 5.97619 3.21831 5.68354 3.99549 5.21743L3.99549 5.21743L4.07124 5.17199L9.27124 2.05199L9.35157 2.00377L9.35158 2.00377C10.1722 1.51119 10.6873 1.20201 11.2474 1.07902ZM12.5343 2.05574C12.181 1.97816 11.8151 1.97816 11.4618 2.05574C11.0815 2.13927 10.7138 2.35267 9.78573 2.90948L4.58574 6.02948C4.0633 6.34294 3.73065 6.54485 3.49528 6.71567L7.29548 9.03801L15.7815 3.85215L14.2104 2.90948C13.2824 2.35267 12.9147 2.13927 12.5343 2.05574ZM8.25434 9.62399L12 11.913L20.5026 6.71697C20.2672 6.54588 19.9342 6.34373 19.4104 6.02948L16.7492 4.43275L8.25434 9.62399ZM21.1791 7.47555L12.5 12.7794V21.9495C12.5115 21.9472 12.5229 21.9447 12.5343 21.9422C12.9147 21.8587 13.2824 21.6453 14.2104 21.0885L19.4104 17.9685C20.2885 17.4416 20.6305 17.2299 20.8755 16.9513C21.1031 16.6924 21.2747 16.3893 21.3796 16.061C21.4925 15.7075 21.4981 15.3053 21.4981 14.2813V9.7167C21.4981 8.69264 21.4925 8.29047 21.3796 7.93702C21.3283 7.77642 21.261 7.62185 21.1791 7.47555ZM11.5 21.9503V12.7794L2.81808 7.47377C2.73565 7.6206 2.66806 7.77577 2.61656 7.93702C2.50369 8.29047 2.49807 8.69264 2.49807 9.7167V14.2813C2.49807 15.3053 2.50369 15.7075 2.61656 16.061C2.72142 16.3893 2.89303 16.6924 3.12064 16.9513C3.36564 17.2299 3.70761 17.4416 4.58574 17.9685L9.78574 21.0885C10.7138 21.6453 11.0815 21.8587 11.4618 21.9422C11.4746 21.945 11.4873 21.9477 11.5 21.9503Z" fill="#E84E1B"/>
</svg>
