<svg width="68" height="68" viewBox="0 0 68 68" fill="none" xmlns="http://www.w3.org/2000/svg">
<path d="M2.13434 0.188017C1.48375 0.400455 0.368447 1.54231 0.169286 2.21945C-0.0564288 3.0161 -0.0564288 28.8804 0.169286 29.6771C0.381724 30.4073 1.48375 31.5093 2.214 31.7218C2.6256 31.8413 5.98477 31.8811 15.9694 31.8811C30.9462 31.8811 29.977 31.9475 30.9861 30.8189C31.3047 30.4737 31.6367 29.9426 31.7163 29.6505C31.942 28.8937 31.942 3.00282 31.7163 2.24601C31.6367 1.95391 31.3047 1.42281 30.9861 1.0776C29.9637 -0.0509758 30.9595 0.0154114 15.8897 0.0286884C6.60881 0.0419655 2.45299 0.0817986 2.13434 0.188017ZM29.4193 2.47172L29.7513 2.79038V15.9483V29.1061L29.4193 29.4248L29.1007 29.7567H15.9428H2.78493L2.46627 29.4248L2.13434 29.1061V15.9483V2.79038L2.46627 2.47172L2.78493 2.13979H15.9428H29.1007L29.4193 2.47172Z" fill="#E5DEDC"/>
<path d="M16.0757 7.59631C15.7437 7.66269 15.0268 7.92824 14.4824 8.20707C12.6236 9.10993 11.2825 10.836 10.8178 12.8807L10.6054 13.7836L9.43698 13.8499C7.29933 13.9827 5.74587 14.9918 4.81646 16.8506C4.35175 17.8066 4.3252 17.9261 4.3252 19.1343C4.3252 20.3426 4.35175 20.4621 4.81646 21.4181C5.41394 22.6263 6.18403 23.3698 7.41882 23.954L8.30841 24.3789H16.4076H24.5068L25.1707 24.047C26.0204 23.6354 26.8171 22.8255 27.2419 21.989C27.7066 21.0463 27.6934 19.3601 27.2287 18.4041C26.8038 17.5278 25.9806 16.7311 25.1308 16.3461L24.4404 16.0274V14.8325C24.4404 12.562 23.7898 10.9024 22.3957 9.49497C20.736 7.8353 18.4258 7.14488 16.0757 7.59631Z" fill="#E5DEDC"/>
<path d="M38.2486 0.188017C37.598 0.400455 36.4827 1.54231 36.2835 2.21945C36.0578 3.0161 36.0578 28.8804 36.2835 29.6771C36.496 30.4073 37.598 31.5093 38.3283 31.7218C38.7399 31.8413 42.099 31.8811 52.0836 31.8811C67.0605 31.8811 66.0912 31.9475 67.1003 30.8189C67.419 30.4737 67.7509 29.9426 67.8306 29.6505C68.0563 28.8937 68.0563 3.00282 67.8306 2.24601C67.7509 1.95391 67.419 1.42281 67.1003 1.0776C66.078 -0.0509758 67.0738 0.0154114 52.004 0.0286884C42.7231 0.0419655 38.5673 0.0817986 38.2486 0.188017ZM48.4191 5.55207C48.9767 6.20267 49.9592 7.42418 50.6098 8.27394L51.7782 9.82739L53.2255 8.14116C54.0221 7.21175 54.8055 6.33544 54.9648 6.20267C55.2436 5.9504 55.2436 5.9504 55.5888 6.26905C56.1996 6.8267 58.5895 9.69461 59.7314 11.2082C62.3869 14.74 63.7411 17.5681 63.7411 19.5597C63.7411 19.958 63.6217 20.7547 63.4756 21.3123C62.8648 23.7288 61.245 25.6806 58.948 26.7693C56.4917 27.9244 53.9292 27.9112 51.4065 26.7029C50.5036 26.2648 50.0787 25.9461 49.2157 25.0698C48.5651 24.4192 47.9676 23.6624 47.7154 23.1844L47.2905 22.3878L46.2548 22.2152C42.909 21.6841 40.373 18.7763 40.373 15.4835C40.373 13.399 42.6168 9.56184 46.2548 5.4193C46.7461 4.86165 47.2108 4.39694 47.2772 4.39694C47.3436 4.39694 47.8614 4.91476 48.4191 5.55207Z" fill="#E5DEDC"/>
<path d="M46.2022 8.80479C44.091 11.5267 42.6969 13.983 42.5376 15.2443C42.4181 16.2932 42.8695 17.5944 43.6529 18.4707C44.3964 19.3072 45.0072 19.7055 45.9499 19.9843C46.3482 20.1038 46.6801 20.1968 46.7067 20.1968C46.7332 20.1968 46.7465 19.8914 46.7465 19.5196C46.7465 17.9662 47.6892 15.709 49.402 13.1067C50.3049 11.7656 50.3447 11.6462 50.1854 11.3408C49.8933 10.7964 47.4901 7.67622 47.3174 7.62311C47.2378 7.59655 46.7332 8.12765 46.2022 8.80479Z" fill="#E5DEDC"/>
<path d="M54.2081 10.2652C51.3535 13.704 49.4017 16.8508 48.9901 18.6963C48.6316 20.263 49.3486 22.3078 50.7162 23.6488C53.2389 26.1051 57.2619 26.1051 59.7581 23.6621C61.1389 22.3078 61.8559 20.2763 61.4974 18.6963C61.1788 17.2756 59.851 14.899 57.9922 12.4294C56.8371 10.9025 55.3765 9.17644 55.2438 9.17644C55.1774 9.17644 54.7127 9.66771 54.2081 10.2652Z" fill="#E5DEDC"/>
<path d="M2.13434 36.3023C1.48375 36.5147 0.368447 37.6566 0.169286 38.3337C-0.0564288 39.1304 -0.0564288 64.9947 0.169286 65.7913C0.381724 66.5216 1.48375 67.6236 2.214 67.836C2.6256 67.9555 5.98477 67.9954 15.9694 67.9954C30.9462 67.9954 29.977 68.0617 30.9861 66.9332C31.3047 66.588 31.6367 66.0569 31.7163 65.7648C31.942 65.0079 31.942 39.1171 31.7163 38.3603C31.6367 38.0682 31.3047 37.5371 30.9861 37.1919C29.9637 36.0633 30.9595 36.1297 15.8897 36.1429C6.60881 36.1562 2.45299 36.1961 2.13434 36.3023ZM17.005 42.5028V43.565L18.2663 42.6223C18.97 42.0912 19.5675 41.6929 19.6074 41.7327C19.8198 41.9452 20.7227 43.2331 20.7227 43.326C20.7227 43.3791 19.8862 44.0563 18.8638 44.8263L17.005 46.2337V47.8536V49.4734L18.4389 48.0395L19.8596 46.6188L20.6297 47.3756L21.3865 48.1457L19.9658 49.5664L18.5319 51.0003H20.6164H22.7143L23.9491 49.3539L25.1839 47.7075L25.9539 48.2917C26.3921 48.6104 26.7639 48.9025 26.8037 48.9423C26.8435 48.9689 26.5249 49.4469 26.1133 50.0045L25.3697 51.0003H25.9672H26.5647V52.0625V53.1247H25.5689H24.5731L25.7149 54.6516C26.3523 55.5014 26.8435 56.2183 26.8037 56.2449C26.7639 56.2847 26.3921 56.5768 25.9539 56.8955L25.1839 57.4797L23.5507 55.3022L21.9176 53.1247H20.2314H18.5319L19.9658 54.5587L21.3865 55.9793L20.6297 56.7494L19.8596 57.5062L18.4389 56.0856L17.005 54.6516V56.8025V58.9535L18.8638 60.3609C19.8862 61.131 20.7227 61.8081 20.7227 61.8612C20.7227 61.9542 19.8198 63.2421 19.6074 63.4545C19.5675 63.4943 18.97 63.096 18.2663 62.5649L17.005 61.6222V62.1533V62.6844H15.9428H14.8806V62.1533V61.6222L13.6193 62.5649C12.9156 63.096 12.3181 63.4943 12.2782 63.4545C12.0658 63.2421 11.1629 61.9542 11.1629 61.8612C11.1629 61.8081 11.9994 61.131 13.0218 60.3609L14.8806 58.9535V56.8025V54.6516L13.4467 56.0856L12.026 57.5062L11.2559 56.7494L10.4991 55.9793L11.9198 54.5587L13.3537 53.1247H11.6542H9.96799L8.33487 55.3022L6.70175 57.4797L5.93167 56.8955C5.49351 56.5768 5.12175 56.2847 5.08191 56.2449C5.04208 56.2183 5.53334 55.5014 6.17066 54.6516L7.31251 53.1247H6.31671H5.32091V52.0625V51.0003H5.91839H6.51587L5.77234 50.0045C5.36074 49.4469 5.04208 48.9689 5.08191 48.9423C5.12175 48.9025 5.49351 48.6104 5.93167 48.2917L6.70175 47.7075L7.93655 49.3539L9.17134 51.0003H11.2692H13.3537L11.9198 49.5664L10.4991 48.1457L11.2559 47.3756L12.026 46.6188L13.4467 48.0395L14.8806 49.4734V47.8536V46.2337L13.0218 44.8263C11.9994 44.0563 11.1629 43.3791 11.1629 43.326C11.1629 43.2331 12.0658 41.9452 12.2782 41.7327C12.3181 41.6929 12.9156 42.0912 13.6193 42.6223L14.8806 43.565V42.5028V41.4406H15.9428H17.005V42.5028ZM9.86177 44.4546C10.207 44.7998 10.4991 45.145 10.4991 45.2114C10.4991 45.3973 9.27756 46.6188 9.10496 46.6188C9.02529 46.6188 8.6668 46.3134 8.30831 45.9549L7.65772 45.2911L8.3747 44.5608C8.77302 44.1625 9.13151 43.8305 9.15807 43.8305C9.1979 43.8305 9.51655 44.1094 9.86177 44.4546ZM23.5109 44.5608L24.2279 45.2911L23.5773 45.9549C23.2188 46.3134 22.8603 46.6188 22.7939 46.6188C22.6213 46.6188 21.3865 45.4106 21.3865 45.2379C21.3865 45.0919 22.5815 43.8305 22.7143 43.8305C22.7541 43.8305 23.1126 44.1625 23.5109 44.5608ZM9.86177 58.1303C10.207 58.4755 10.4991 58.8207 10.4991 58.9004C10.4991 58.98 10.1937 59.3385 9.83521 59.697L9.17134 60.3609L8.41453 59.5908L7.64445 58.834L8.30831 58.1701C8.6668 57.8116 9.02529 57.5062 9.09168 57.5062C9.17134 57.5062 9.51655 57.7851 9.86177 58.1303ZM23.5773 58.1701L24.2412 58.834L23.4711 59.5908L22.7143 60.3609L22.0504 59.697C21.6919 59.3385 21.3865 58.98 21.3865 58.9136C21.3865 58.7278 22.608 57.5062 22.7806 57.5062C22.8603 57.5062 23.2188 57.8116 23.5773 58.1701Z" fill="#E5DEDC"/>
<path d="M38.2486 36.3023C37.598 36.5147 36.4827 37.6566 36.2835 38.3337C36.0578 39.1304 36.0578 64.9947 36.2835 65.7913C36.496 66.5216 37.598 67.6236 38.3283 67.836C38.7399 67.9555 42.099 67.9954 52.0836 67.9954C67.0605 67.9954 66.0912 68.0617 67.1003 66.9332C67.419 66.588 67.7509 66.0569 67.8306 65.7648C68.0563 65.0079 68.0563 39.1171 67.8306 38.3603C67.7509 38.0682 67.419 37.5371 67.1003 37.1919C66.078 36.0633 67.0738 36.1297 52.004 36.1429C42.7231 36.1562 38.5673 36.1961 38.2486 36.3023ZM65.5336 38.586L65.8655 38.9046V52.0625V65.2204L65.5336 65.539L65.2149 65.871H52.0571H38.8992L38.5805 65.539L38.2486 65.2204V52.0625V38.9046L38.5805 38.586L38.8992 38.254H52.0571H65.2149L65.5336 38.586Z" fill="#E5DEDC"/>
<path d="M50.9951 41.4407V42.5029H52.0573H53.1195V41.4407V40.3786H52.0573H50.9951V41.4407Z" fill="#E5DEDC"/>
<path d="M43.7856 43.8041L43.0288 44.5742L43.7325 45.2647C44.1176 45.6497 44.4893 45.9551 44.569 45.9551C44.7416 45.9551 45.9498 44.7203 45.9498 44.5477C45.9498 44.4813 45.6312 44.1095 45.2461 43.7245L44.5424 43.0341L43.7856 43.8041Z" fill="#E5DEDC"/>
<path d="M58.7885 43.8042L58.0317 44.5743L58.8018 45.3311L59.5719 46.0879L60.3287 45.3178L61.0855 44.5477L60.3154 43.7909L59.5454 43.0341L58.7885 43.8042Z" fill="#E5DEDC"/>
<path d="M50.53 44.7866C50.1715 44.853 49.3882 45.1451 48.7907 45.4239C44.2365 47.6279 43.2275 53.7355 46.8389 57.3071C50.4636 60.892 56.4916 59.8829 58.7089 55.3155C61.3909 49.7656 56.6376 43.6314 50.53 44.7866Z" fill="#E5DEDC"/>
<path d="M40.373 52.0623V53.1245H41.4352H42.4974V52.0623V51.0001H41.4352H40.373V52.0623Z" fill="#E5DEDC"/>
<path d="M61.6172 52.0623V53.1245H62.6794H63.7416V52.0623V51.0001H62.6794H61.6172V52.0623Z" fill="#E5DEDC"/>
<path d="M43.7192 58.874L43.0288 59.5777L43.7989 60.3345L44.569 61.0913L45.2594 60.3876C45.6445 60.0026 45.9498 59.6308 45.9498 59.5511C45.9498 59.3785 44.715 58.1703 44.5424 58.1703C44.476 58.1703 44.1043 58.4889 43.7192 58.874Z" fill="#E5DEDC"/>
<path d="M58.7222 58.874L58.0317 59.5777L58.8018 60.3345L59.5719 61.0913L60.3287 60.3212L61.0855 59.5511L60.3818 58.8607C59.9968 58.4757 59.625 58.1703 59.5454 58.1703C59.479 58.1703 59.1072 58.4889 58.7222 58.874Z" fill="#E5DEDC"/>
<path d="M50.9951 62.6844V63.7466H52.0573H53.1195V62.6844V61.6222H52.0573H50.9951V62.6844Z" fill="#E5DEDC"/>
</svg>
