<svg width="49" height="68" viewBox="0 0 49 68" fill="none" xmlns="http://www.w3.org/2000/svg">
<path d="M19.3941 0.182343C19.3547 0.300354 19.3941 0.955978 19.486 1.65093C19.8537 4.37831 19.4335 7.38106 18.3568 9.81997C17.0831 12.7047 15.7175 14.5404 10.951 19.7198C7.91783 23.0111 7.02494 24.0469 5.76439 25.7384C3.28268 29.069 1.75952 32.1111 0.853498 35.5334C0.118177 38.2739 0 39.336 0 42.8632C0 45.8529 0.0262615 46.1938 0.35453 47.7279C2.48171 57.6934 10.2551 65.1806 20.1425 66.7934C33.4834 68.9569 46.0757 59.5291 48.0585 45.8791C48.3211 44.004 48.2554 39.9261 47.914 38.0117C47.1525 33.7632 45.7081 30.0786 43.5284 26.8399C42.2022 24.873 41.7426 24.7681 41.7951 26.4727C41.887 29.6984 39.9306 32.2291 36.9236 32.7798C35.7944 32.9896 34.5732 32.7929 33.4571 32.2422C32.4592 31.757 31.2249 30.4851 30.6997 29.3968C30.332 28.6756 30.3189 28.5576 30.332 26.9317C30.3451 25.5811 30.4239 24.7943 30.7653 23.1291C31.2774 20.5197 31.3693 19.2216 31.1855 17.294C30.8703 14.2913 30.2401 12.0884 28.927 9.55772C27.1412 6.09604 24.2131 2.8835 20.7203 0.52327C19.8537 -0.0536804 19.5254 -0.132355 19.3941 0.182343ZM21.2587 33.2387C21.3637 33.3567 21.4425 33.5534 21.4031 33.6714C21.2455 34.2222 21.193 37.697 21.3112 38.9951C21.5869 41.8405 22.2435 43.4009 23.8191 44.9612C25.4474 46.5872 27.2331 47.269 29.5967 47.151C31.4481 47.0723 32.8794 46.4954 34.4944 45.1973C34.9671 44.817 35.2298 44.9743 35.5318 45.7742C36.2146 47.623 36.3853 50.5078 35.9126 52.5009C34.8358 56.9853 31.3431 60.5257 26.9049 61.6402C25.2898 62.0336 22.6636 62.0336 21.1536 61.6402C16.7548 60.447 13.4327 57.0902 12.3166 52.7107C12.054 51.701 12.0015 51.1503 12.0015 49.6161C12.0015 45.0399 13.3408 41.5127 16.6498 37.4085C17.7134 36.0841 20.6809 33.0289 20.891 33.0289C20.9698 33.0289 21.1405 33.1207 21.2587 33.2387Z" fill="#DCE0E4"/>
</svg>
