<svg width="64" height="64" viewBox="0 0 64 64" fill="none" xmlns="http://www.w3.org/2000/svg">
<path d="M34.29 0.139809C32.5892 0.565002 33.3771 -0.172836 16.6069 16.5848C2.11285 31.0789 0.999844 32.2294 0.649684 32.9797C-0.250725 34.8806 -0.213208 36.6814 0.74973 38.4697C1.29998 39.5077 24.6231 62.8183 25.586 63.2935C27.3993 64.1939 29.1251 64.2064 31.001 63.3435C31.7638 62.9934 32.7893 61.9929 47.3959 47.3738C61.84 32.9172 63.003 31.7292 63.3657 30.9788C63.5658 30.5286 63.8034 29.8283 63.8909 29.4156C63.991 28.8779 64.016 25.2262 63.991 16.5973L63.9535 4.5293L63.6658 3.82899C63.0405 2.26578 61.7149 0.940174 60.1642 0.314888L59.4514 0.0272598L47.1958 0.00224686C37.6665 -0.0102577 34.8027 0.0147514 34.29 0.139809ZM52.8859 10.2444C54.6742 11.1448 54.049 13.721 52.048 13.721C49.9596 13.721 49.5969 10.7071 51.6229 10.0943C52.1356 9.93176 52.2982 9.95677 52.8859 10.2444ZM33.4396 14.909C35.528 15.4593 37.1413 17.0725 37.6915 19.186C38.642 22.8376 35.8032 26.4768 32.0014 26.4768C26.7991 26.4768 24.1729 20.1239 27.8621 16.4722C29.3877 14.9716 31.4387 14.3963 33.4396 14.909ZM44.8823 30.3285C45.5076 30.6412 45.8827 31.2665 45.8827 31.9793C45.8827 32.6921 45.5076 33.3174 44.8823 33.63C44.4696 33.8426 43.5942 33.8551 32.0014 33.8551C20.4087 33.8551 19.5333 33.8426 19.1206 33.63C17.7825 32.9672 17.7825 30.9913 19.1206 30.3285C19.5333 30.1159 20.4087 30.1034 32.0014 30.1034C43.5942 30.1034 44.4696 30.1159 44.8823 30.3285ZM33.3395 37.6068C34.8277 37.957 36.4034 39.145 37.1038 40.4581C38.3918 42.8842 38.0292 45.623 36.1408 47.4863C32.8643 50.7128 27.4744 49.2246 26.3113 44.7726C25.511 41.7212 27.3868 38.5198 30.5008 37.6569C31.1761 37.4693 32.6142 37.4443 33.3395 37.6068Z" fill="#DCE0E4"/>
<path d="M31.0012 18.7608C29.0878 19.7738 29.8381 22.7251 32.0016 22.7251C34.1651 22.7251 34.9154 19.7738 33.0021 18.7608C32.3143 18.3981 31.689 18.3981 31.0012 18.7608Z" fill="#DCE0E4"/>
<path d="M31.2511 41.321C30.4633 41.6461 29.8755 42.509 29.8755 43.3344C29.8755 44.0722 30.3507 44.8601 31.001 45.1977C31.6888 45.5604 32.3141 45.5604 33.0019 45.1977C34.365 44.4849 34.4901 42.484 33.227 41.5961C32.8268 41.3085 31.6638 41.1459 31.2511 41.321Z" fill="#DCE0E4"/>
</svg>
