<svg width="64" height="64" viewBox="0 0 64 64" fill="none" xmlns="http://www.w3.org/2000/svg">
<path d="M33.8301 0.212219C32.2289 0.662548 31.395 1.29634 28.6764 4.14841C27.242 5.66618 20.4704 12.8547 13.6321 20.11C0.722738 33.8533 0.589309 34.0034 0.172339 35.8548C-0.227951 37.5727 0.0722665 39.3573 1.03964 40.9751C1.43993 41.659 4.22528 44.2942 12.6481 52.0665C18.7358 57.6873 24.0563 62.5074 24.4733 62.8076C25.6241 63.6416 26.6916 63.9418 28.4262 63.9251C30.0941 63.9084 31.2949 63.5582 32.4791 62.6909C33.2964 62.1071 62.4342 31.1513 62.9512 30.3341C64.3356 28.0991 64.3523 25.2971 62.9846 23.0288C62.5176 22.2449 58.3646 18.1919 57.8475 18.0085C57.7475 17.9918 57.1804 18.4421 56.5633 19.0259C54.4451 21.0774 52.0433 22.5785 49.6082 23.4291C48.5241 23.796 48.1071 24.0462 47.3566 24.78C46.0056 26.0977 44.9715 26.548 43.1202 26.6314C41.3189 26.7148 40.168 26.3645 38.8838 25.3304C35.3312 22.5284 35.9817 16.9244 40.118 14.8895C41.002 14.4559 41.2688 14.4059 42.7699 14.4059C44.2543 14.4059 44.5546 14.4559 45.4719 14.8895C46.556 15.3899 47.9237 16.6408 48.424 17.6249L48.7076 18.1586L49.4081 17.8083C50.7257 17.1245 53.8613 14.6894 53.8613 14.3391C53.8613 14.2724 52.3602 12.8381 50.5256 11.1535C48.6909 9.46894 47.1898 8.03456 47.1898 7.96785C47.1898 7.71767 49.4748 5.78293 50.8258 4.8656C56.2297 1.2463 60.4661 2.29707 59.6989 7.08387C59.2319 9.98598 57.3305 13.1883 54.3783 16.0404C50.4922 19.7931 46.0056 21.4109 43.7706 19.8932C43.0535 19.4095 42.5031 19.3761 42.1361 19.7931C41.4857 20.4936 41.9193 21.3275 43.2703 22.0447C44.2877 22.5785 46.5727 22.6452 48.2572 22.1782C53.9447 20.6104 60.0825 14.2224 61.5502 8.33478C62.651 3.91491 60.5662 0.64587 56.6133 0.64587C53.6778 0.64587 49.9084 2.48053 46.9063 5.36596C46.2558 5.99976 45.6387 6.50012 45.5553 6.46676C45.4552 6.4334 44.1376 5.24921 42.6031 3.84819C41.0687 2.44717 39.5009 1.12955 39.1173 0.896049C37.6829 0.045433 35.4646 -0.238106 33.8301 0.212219ZM34.1637 25.6307C34.5806 26.0643 36.0317 27.7155 37.3994 29.2833C39.4175 31.6183 39.8511 32.2188 39.8511 32.6524C39.8511 33.0194 39.7344 33.2362 39.4342 33.4363C39.0172 33.7032 38.9338 33.6865 37.4994 33.2695C36.6655 33.0194 35.9483 32.8526 35.8983 32.8859C35.8649 32.936 36.0317 33.6532 36.2819 34.4871C36.7155 35.9215 36.7155 36.0049 36.4487 36.4218C36.2152 36.7721 36.0484 36.8555 35.5981 36.8054C35.1477 36.7721 34.3805 36.1883 31.5284 33.7032C29.1934 31.6851 27.9759 30.5175 27.9091 30.234C27.759 29.6336 28.4595 28.9164 29.0433 29.0498C29.2601 29.1165 30.3776 29.9672 31.5118 30.9512C33.0462 32.2855 33.5466 32.6358 33.4465 32.3355C33.1296 31.2347 33.1296 30.8344 33.4465 30.4842C33.6967 30.2007 33.8968 30.1506 34.4305 30.234C34.8141 30.284 35.2645 30.3674 35.4313 30.4342C35.6147 30.5009 34.9476 29.6336 33.9635 28.4994C32.9795 27.3819 32.1289 26.2645 32.0788 26.0476C31.9454 25.564 32.5625 24.8301 33.0796 24.8301C33.263 24.8301 33.7467 25.1803 34.1637 25.6307ZM26.308 32.4356C26.5582 32.6024 26.6749 32.8526 26.6749 33.2195C26.6749 33.6698 26.408 34.0201 24.8402 35.5879L23.0056 37.4392L23.8395 38.2565L24.6735 39.0738L26.5582 37.2057C28.5596 35.2376 28.8932 35.0542 29.5103 35.6713C30.1608 36.3218 29.9773 36.7387 28.0092 38.7402L26.1912 40.6082L26.9751 41.3921L27.7424 42.176L29.6104 40.3413C31.5951 38.3733 32.0121 38.1731 32.6793 38.8403C33.3131 39.474 33.1296 39.7909 30.6445 42.2928C28.643 44.3109 28.1927 44.6778 27.7757 44.6778C27.3421 44.6778 26.7917 44.1941 23.8896 41.292C21.0542 38.4566 20.5038 37.8395 20.5038 37.4392C20.5038 36.6887 25.007 32.1687 25.7576 32.1687C25.8577 32.1687 26.1078 32.2855 26.308 32.4356ZM22.0382 43.1267C24.5233 45.6118 25.5074 46.696 25.5074 46.9628C25.5074 47.4298 24.957 48.0136 24.54 48.0136C24.3732 48.0136 22.7387 47.7134 20.9207 47.3464C19.1027 46.9795 17.5349 46.6793 17.4349 46.6793C17.3348 46.6793 18.1687 47.5966 19.3029 48.7308C20.6872 50.1151 21.3377 50.8823 21.3377 51.1492C21.3377 51.6329 20.7706 52.1833 20.2869 52.1833C19.7866 52.1833 12.9983 45.4117 12.9983 44.9113C12.9983 44.7279 13.1818 44.3943 13.4153 44.1775L13.8156 43.7939L17.2848 44.4944C19.2028 44.8613 20.8707 45.1782 20.9874 45.1782C21.1209 45.1782 20.3203 44.2442 19.2028 43.1267C18.0853 41.9759 17.168 40.9251 17.168 40.7583C17.168 40.3413 17.8185 39.6742 18.2355 39.6742C18.4523 39.6742 19.8199 40.9251 22.0382 43.1267Z" fill="#E6DEDC"/>
</svg>
