<svg width="16" height="17" viewBox="0 0 16 17" fill="none" xmlns="http://www.w3.org/2000/svg">
<path fill-rule="evenodd" clip-rule="evenodd" d="M11.9997 1.8335H3.99967C2.52692 1.8335 1.33301 3.0274 1.33301 4.50016V12.5002C1.33301 13.9729 2.52692 15.1668 3.99967 15.1668H11.9997C13.4724 15.1668 14.6663 13.9729 14.6663 12.5002V4.50016C14.6663 3.0274 13.4724 1.8335 11.9997 1.8335ZM11.061 6.80716C11.2306 6.58918 11.1913 6.27504 10.9733 6.10551C10.7553 5.93598 10.4412 5.97524 10.2717 6.19322L7.60034 9.62779C7.54093 9.70416 7.4292 9.71407 7.35728 9.64935L5.66749 8.12854C5.46224 7.94381 5.14609 7.96045 4.96137 8.1657C4.77664 8.37096 4.79327 8.6871 4.99853 8.87183L6.68832 10.3926C7.19174 10.8457 7.97388 10.7763 8.38969 10.2417L11.061 6.80716Z" fill="#2D88D6"/>
</svg>
