<svg width="24" height="25" viewBox="0 0 24 25" fill="none" xmlns="http://www.w3.org/2000/svg">
<path d="M3 5.3C3 4.30589 3.80589 3.5 4.8 3.5H8.4C9.39411 3.5 10.2 4.30589 10.2 5.3V8.9C10.2 9.89411 9.39411 10.7 8.4 10.7H4.8C3.80589 10.7 3 9.89411 3 8.9V5.3Z" stroke="#A5A8AD" stroke-width="1.5"/>
<path d="M21 7.1C21 9.08823 19.3882 10.7 17.4 10.7C15.4118 10.7 13.8 9.08823 13.8 7.1C13.8 5.11177 15.4118 3.5 17.4 3.5C19.3882 3.5 21 5.11177 21 7.1Z" stroke="#A5A8AD" stroke-width="1.5"/>
<path d="M10.2 17.9C10.2 19.8882 8.58823 21.5 6.6 21.5C4.61177 21.5 3 19.8882 3 17.9C3 15.9118 4.61177 14.3 6.6 14.3C8.58823 14.3 10.2 15.9118 10.2 17.9Z" stroke="#A5A8AD" stroke-width="1.5"/>
<path d="M13.8 16.1C13.8 15.1059 14.6059 14.3 15.6 14.3H19.2C20.1941 14.3 21 15.1059 21 16.1V19.7C21 20.6941 20.1941 21.5 19.2 21.5H15.6C14.6059 21.5 13.8 20.6941 13.8 19.7V16.1Z" stroke="#A5A8AD" stroke-width="1.5"/>
</svg>
