<svg width="234" height="183" viewBox="0 0 234 183" fill="none" xmlns="http://www.w3.org/2000/svg">
<path fill-rule="evenodd" clip-rule="evenodd" d="M124.754 0.963535C119.644 -0.158744 114.352 -0.158744 109.242 0.963536C103.445 2.23661 98.1514 5.41627 90.4902 10.0178L90.4825 10.0225L90.4786 10.0248L90.4246 10.0572C90.1081 10.2473 89.7875 10.4398 89.4627 10.6347L26.2789 48.5505L25.3099 49.1317C18.0527 53.4829 13.036 56.4907 9.30406 60.7353C8.03712 62.1762 6.89013 63.7121 5.87198 65.327L54.4481 94.0352L168.157 24.811L144.533 10.6347C144.186 10.4263 143.844 10.2206 143.506 10.0177C135.845 5.41624 130.551 2.23661 124.754 0.963535ZM68.561 102.376L116.991 130.997L228.12 65.3205C227.103 63.7079 225.957 62.1743 224.692 60.7353C220.96 56.4907 215.943 53.4829 208.686 49.1317L207.717 48.5505L182.164 33.2163L68.561 102.376ZM233.178 79.1313L124.222 143.524V245.098C124.4 245.062 124.577 245.024 124.754 244.985C130.551 243.712 135.844 240.533 143.505 235.932L143.505 235.931L143.506 235.931C143.844 235.728 144.186 235.523 144.533 235.314L207.717 197.398L208.686 196.817C215.943 192.466 220.96 189.458 224.692 185.214C227.984 181.47 230.465 177.086 231.982 172.338C233.701 166.954 233.699 161.104 233.696 152.643L233.695 151.513V94.4361L233.696 93.3062C233.698 87.6182 233.699 83.1106 233.178 79.1313ZM109.759 245.095V143.524L0.816924 79.1396C0.296678 83.1168 0.298398 87.6221 0.300567 93.3062L0.300852 94.4361V151.513L0.300567 152.643C0.297337 161.104 0.295105 166.954 2.01438 172.338C3.53074 177.086 6.01259 181.47 9.30406 185.214C13.036 189.458 18.0526 192.466 25.3097 196.817L25.31 196.817L26.2789 197.398L89.4628 235.314C89.81 235.523 90.1524 235.728 90.4901 235.931C98.1513 240.533 103.445 243.712 109.242 244.985C109.414 245.023 109.586 245.06 109.759 245.095Z" fill="#F7F7F7"/>
</svg>
