<svg width="234" height="245" viewBox="0 0 234 245" fill="none" xmlns="http://www.w3.org/2000/svg">
<path fill-rule="evenodd" clip-rule="evenodd" d="M124.454 0.841709C119.344 -0.28057 114.051 -0.28057 108.941 0.84171C103.145 2.11479 97.8511 5.29444 90.1899 9.89596L90.1822 9.90063L90.1783 9.90296L90.1243 9.9354C89.8078 10.1255 89.4872 10.318 89.1625 10.5129L25.9786 48.4287L25.0096 49.0099C17.7524 53.361 12.7357 56.3689 9.00377 60.6134C7.73682 62.0544 6.58983 63.5902 5.57169 65.2052L54.1478 93.9134L167.857 24.6892L144.233 10.5129C143.886 10.3045 143.543 10.0988 143.206 9.89591C135.544 5.29442 130.251 2.11478 124.454 0.841709ZM68.2607 102.254L116.69 130.876L227.82 65.1987C226.803 63.5861 225.657 62.0525 224.392 60.6134C220.66 56.3689 215.643 53.361 208.386 49.0098L207.417 48.4287L181.864 33.0945L68.2607 102.254ZM232.878 79.0095L123.922 143.402V244.976C124.099 244.94 124.277 244.902 124.454 244.864C130.25 243.591 135.544 240.411 143.205 235.81L143.205 235.81L143.205 235.809C143.543 235.607 143.886 235.401 144.233 235.192L207.417 197.277L208.386 196.695C215.643 192.344 220.66 189.336 224.392 185.092C227.683 181.348 230.165 176.964 231.681 172.216C233.401 166.832 233.399 160.983 233.395 152.521L233.395 151.391V94.3143L233.395 93.1844C233.397 87.4963 233.399 82.9888 232.878 79.0095ZM109.459 244.973V143.402L0.516631 79.0177C-0.0036149 82.995 -0.00189543 87.5003 0.000274368 93.1844L0.000559516 94.3143V151.391L0.000274368 152.521C-0.00295573 160.983 -0.0051878 166.832 1.71409 172.216C3.23044 176.964 5.71229 181.348 9.00377 185.092C12.7357 189.336 17.7523 192.344 25.0094 196.695L25.0097 196.695L25.9786 197.277L89.1625 235.192C89.5097 235.401 89.8521 235.606 90.1898 235.809C97.851 240.411 103.145 243.59 108.941 244.864C109.114 244.901 109.286 244.938 109.459 244.973Z" fill="#F7F7F7"/>
</svg>
