<svg width="32" height="32" viewBox="0 0 32 32" fill="none" xmlns="http://www.w3.org/2000/svg">
<g clip-path="url(#clip0_114_4390)">
<path opacity="0.982" fill-rule="evenodd" clip-rule="evenodd" d="M14.6562 -0.03125C15.5312 -0.03125 16.4062 -0.03125 17.2812 -0.03125C22.7622 0.693031 26.6476 3.56803 28.9375 8.59375C30.7768 13.5154 30.1935 18.1196 27.1875 22.4063C23.6256 26.7889 19.0319 28.5702 13.4062 27.75C8.80862 26.7759 5.44401 24.2031 3.3125 20.0313C1.83153 16.7981 1.5607 13.4648 2.5 10.0313C4.01527 5.32848 7.109 2.17223 11.7812 0.5625C12.7341 0.294898 13.6924 0.0969813 14.6562 -0.03125ZM15.0312 4.03125C19.4423 3.87668 22.7236 5.71002 24.875 9.53125C26.6319 13.5338 26.1319 17.2213 23.375 20.5938C20.3424 23.6878 16.7487 24.5941 12.5937 23.3125C8.76993 21.7376 6.59287 18.8939 6.0625 14.7813C5.9162 10.5417 7.65581 7.34375 11.2812 5.1875C12.4729 4.58791 13.7229 4.20249 15.0312 4.03125ZM16.8437 12.0313C17.4367 12.0511 17.7908 12.3532 17.9062 12.9375C17.8731 13.1811 17.7793 13.3998 17.625 13.5938C16.4479 14.7708 15.2708 15.9479 14.0937 17.125C13.3164 17.5593 12.7956 17.3509 12.5312 16.5C12.5708 16.2896 12.6437 16.0917 12.75 15.9063C13.9687 14.6875 15.1875 13.4688 16.4062 12.25C16.5578 12.1742 16.7037 12.1013 16.8437 12.0313Z" fill="#2D88D6"/>
<path opacity="0.984" fill-rule="evenodd" clip-rule="evenodd" d="M14.6562 5.90625C14.7812 5.90625 14.9062 5.90625 15.0312 5.90625C14.9786 6.40656 15.1244 6.83369 15.4688 7.1875C16.0691 7.46656 16.5171 7.31031 16.8125 6.71875C16.8797 6.45187 16.9109 6.18104 16.9062 5.90625C18.464 6.04996 19.839 6.62287 21.0312 7.625C20.7861 7.82819 20.5883 8.06775 20.4375 8.34375C20.3861 9.27163 20.8132 9.63619 21.7188 9.4375C21.9353 9.28356 22.1332 9.1065 22.3125 8.90625C23.2928 10.1066 23.8658 11.4816 24.0312 13.0312C23.2431 12.8929 22.764 13.2054 22.5938 13.9688C22.6226 14.3831 22.831 14.6643 23.2188 14.8125C23.4888 14.8437 23.7596 14.8541 24.0312 14.8438C23.8786 16.4173 23.3057 17.8131 22.3125 19.0312C22.1562 18.875 22 18.7188 21.8438 18.5625C21.213 18.245 20.7443 18.4012 20.4375 19.0312C20.3682 19.353 20.4307 19.6447 20.625 19.9062C20.7604 20.0417 20.8958 20.1771 21.0312 20.3125C18.6636 22.1024 16.0594 22.5399 13.2188 21.625C12.3605 21.3316 11.5897 20.8941 10.9062 20.3125C11.1779 20.1039 11.3759 19.8435 11.5 19.5312C11.5813 18.8629 11.2896 18.4879 10.625 18.4062C10.4294 18.3956 10.2523 18.4476 10.0938 18.5625C9.9375 18.7188 9.78125 18.875 9.625 19.0312C8.63175 17.8128 8.05881 16.417 7.90625 14.8438C8.27713 14.8819 8.63125 14.8299 8.96875 14.6875C9.47981 14.1688 9.459 13.6688 8.90625 13.1875C8.58637 13.0575 8.25306 13.0054 7.90625 13.0312C8.07175 11.4816 8.64469 10.1066 9.625 8.90625C9.83356 9.17794 10.094 9.37587 10.4062 9.5C11.0582 9.58763 11.4332 9.30638 11.5312 8.65625C11.5236 8.45638 11.4716 8.26888 11.375 8.09375C11.2188 7.9375 11.0625 7.78125 10.9062 7.625C12.0113 6.72862 13.2613 6.15573 14.6562 5.90625ZM16.8438 12.0312C16.7037 12.1013 16.5578 12.1742 16.4062 12.25C15.1875 13.4688 13.9688 14.6875 12.75 15.9062C12.6438 16.0917 12.5708 16.2896 12.5312 16.5C12.7956 17.3509 13.3164 17.5592 14.0938 17.125C15.2708 15.9479 16.4479 14.7708 17.625 13.5938C17.7793 13.3998 17.8731 13.1811 17.9062 12.9375C17.7908 12.3532 17.4367 12.0511 16.8438 12.0312Z" fill="#2D88D6"/>
<path opacity="0.969" fill-rule="evenodd" clip-rule="evenodd" d="M19.3438 31.9688C17.0938 31.9688 14.8438 31.9688 12.5938 31.9688C12.2725 31.8238 12.0746 31.5738 12 31.2188C11.948 30.5719 11.9584 29.9261 12.0313 29.2812C14.6564 29.9479 17.2814 29.9479 19.9063 29.2812C19.9791 29.9261 19.9895 30.5719 19.9375 31.2188C19.8629 31.5738 19.665 31.8238 19.3438 31.9688Z" fill="#2D88D6"/>
</g>
<defs>
<clipPath id="clip0_114_4390">
<rect width="32" height="32" fill="white"/>
</clipPath>
</defs>
</svg>
