<svg width="24" height="24" viewBox="0 0 24 24" fill="none" xmlns="http://www.w3.org/2000/svg">
<path d="M6.4 20.25C5.98579 20.25 5.65 20.5858 5.65 21C5.65 21.4142 5.98579 21.75 6.4 21.75V20.25ZM17.6 21.75C18.0142 21.75 18.35 21.4142 18.35 21C18.35 20.5858 18.0142 20.25 17.6 20.25V21.75ZM18.25 9.75C18.25 11.2508 17.2502 13.217 15.8477 14.8643C15.1604 15.6715 14.4106 16.3606 13.705 16.8413C12.9775 17.3371 12.3871 17.55 12 17.55V19.05C12.8379 19.05 13.735 18.636 14.5497 18.0809C15.3863 17.5108 16.2334 16.7251 16.9898 15.8367C18.4748 14.0926 19.75 11.7838 19.75 9.75H18.25ZM12 17.55C11.6276 17.55 11.044 17.3285 10.3125 16.7989C9.60584 16.2874 8.85403 15.5556 8.16415 14.7035C6.75685 12.9654 5.75 10.9085 5.75 9.4H4.25C4.25 11.4261 5.51815 13.8192 6.99835 15.6474C7.75222 16.5785 8.59729 17.409 9.43285 18.0139C10.2435 18.6008 11.1474 19.05 12 19.05V17.55ZM5.75 9.4C5.75 6.20463 8.70934 3.75 12 3.75V2.25C8.07414 2.25 4.25 5.19537 4.25 9.4H5.75ZM12 3.75C15.2627 3.75 18.25 6.17967 18.25 9.75H19.75C19.75 5.22033 15.9538 2.25 12 2.25V3.75ZM14.05 9.3C14.05 10.3515 13.1581 11.25 12 11.25V12.75C13.9347 12.75 15.55 11.2309 15.55 9.3H14.05ZM12 11.25C10.8419 11.25 9.95 10.3515 9.95 9.3H8.45C8.45 11.2309 10.0653 12.75 12 12.75V11.25ZM9.95 9.3C9.95 8.24852 10.8419 7.35 12 7.35V5.85C10.0653 5.85 8.45 7.36914 8.45 9.3H9.95ZM12 7.35C13.1581 7.35 14.05 8.24852 14.05 9.3H15.55C15.55 7.36914 13.9347 5.85 12 5.85V7.35ZM6.4 21.75H17.6V20.25H6.4V21.75Z" fill="#4F4F4F"/>
</svg>
