<svg width="32" height="32" viewBox="0 0 32 32" fill="none" xmlns="http://www.w3.org/2000/svg">
<g clip-path="url(#clip0_114_4591)">
<path d="M9.55 0.131249C9.09375 0.36875 8.9 1.075 8.95625 2.33125C8.975 2.9 9.0375 3.29375 9.18125 3.875C9.39375 4.70625 9.39375 4.86875 9.1875 5.325C9.03125 5.66875 9.03125 5.88125 9.1875 6.1875C9.33125 6.46875 9.6875 6.6875 10 6.6875C10.3125 6.6875 10.6625 6.46875 10.8313 6.175C11.2813 5.39375 11.325 4.66875 11.0063 3.375C10.8188 2.6125 10.8 2.48125 10.8375 1.90625C10.8563 1.5625 10.8875 1.15625 10.9063 1C10.9938 0.275 10.2125 -0.225 9.55 0.131249Z" fill="#2D88D6"/>
<path d="M17.4625 0.118653C17.2187 0.268653 17.0187 0.518653 16.9687 0.749903C16.95 0.843653 16.975 1.1374 17.025 1.3999C17.1562 2.0249 17.15 2.5249 17.0062 3.28115C16.7437 4.61865 16.7562 4.9874 17.0687 5.34365C17.4437 5.7624 18.0562 5.7624 18.4312 5.34365C18.5312 5.2249 18.6312 5.0374 18.65 4.9249C18.6687 4.8124 18.75 4.25615 18.8437 3.6874C18.9312 3.11865 19 2.44365 19 2.1874C19 1.55615 18.8312 0.668653 18.6625 0.418653C18.4 0.0249033 17.8437 -0.112597 17.4625 0.118653Z" fill="#2D88D6"/>
<path d="M21.3937 1.06892C21.2 1.16267 21.0937 1.27517 20.9937 1.48142C20.8687 1.73142 20.8625 1.82517 20.8937 2.36892C20.9187 2.70017 21.0187 3.31267 21.125 3.73767C21.3437 4.63767 21.3562 4.86892 21.1875 5.24392C20.8937 5.89392 21.1687 6.54392 21.7937 6.66267C22.5312 6.80017 23.1 6.06892 23.1687 4.87517C23.2 4.41267 23.1687 4.21892 22.975 3.40017C22.8375 2.82517 22.75 2.30017 22.75 2.05642C22.75 1.55642 22.6125 1.26892 22.275 1.08142C21.9687 0.90642 21.7312 0.90017 21.3937 1.06892Z" fill="#2D88D6"/>
<path d="M13.6438 1.62504C13.3313 1.81254 13.2563 1.99379 13.125 2.81879C13.0563 3.24379 12.975 3.74379 12.9375 3.93129C12.8 4.65004 12.9 5.76254 13.15 6.23129C13.2938 6.51254 13.6938 6.71254 14.0375 6.66879C14.3813 6.63129 14.6375 6.44379 14.7813 6.12504C14.8875 5.89379 14.8938 5.81879 14.825 5.43129C14.7188 4.82504 14.7313 4.47504 14.875 3.73754C15.0688 2.73754 15.0938 2.26254 14.9563 2.00004C14.7125 1.53129 14.0875 1.35004 13.6438 1.62504Z" fill="#2D88D6"/>
<path d="M5.59999 1.99381C5.29999 2.19381 5.20624 2.42506 5.03749 3.37506C4.86249 4.36256 4.83749 5.08131 4.96249 5.65631C5.07499 6.19381 5.21249 6.41881 5.51249 6.56881C6.00624 6.81881 6.55624 6.62506 6.78124 6.12506C6.88749 5.89381 6.89374 5.81881 6.82499 5.43131C6.71874 4.82506 6.73124 4.47506 6.87499 3.73756C7.08749 2.64381 7.02499 2.28756 6.58749 1.99381C6.34374 1.83756 5.84374 1.83756 5.59999 1.99381Z" fill="#2D88D6"/>
<path d="M25.4688 2.36242C24.9875 2.66867 24.9063 2.93742 25.0688 3.75617C25.2063 4.44992 25.2125 4.83742 25.1125 5.43117C25.0438 5.81867 25.05 5.89367 25.1563 6.12492C25.3813 6.62492 25.875 6.80617 26.3938 6.57492C26.75 6.41867 26.8938 6.15617 27 5.48117C27.0938 4.91867 27.0563 4.14992 26.9 3.34992C26.8063 2.86242 26.7625 2.75617 26.5625 2.54367C26.3625 2.32492 26.2938 2.28742 25.9938 2.26867C25.7375 2.24992 25.6125 2.26867 25.4688 2.36242Z" fill="#2D88D6"/>
<path d="M3.28125 8.53125C2.4875 8.70625 1.7875 9.08125 1.225 9.65C0.75625 10.1187 0.44375 10.625 0.20625 11.2812L0.03125 11.7812L0.0125 19.1125L0 26.4375H16H32L31.9875 19.1125L31.9688 11.7812L31.8 11.3062C31.3375 10 30.4438 9.1 29.1562 8.64375L28.6562 8.46875L16.1562 8.45625C5.98125 8.45 3.5875 8.4625 3.28125 8.53125ZM6.6875 12.3C6.925 12.425 7.1875 12.8562 7.1875 13.125C7.1875 13.3938 6.925 13.825 6.6875 13.95C6.50625 14.0437 6.31875 14.0625 5.5 14.0625C4.68125 14.0625 4.49375 14.0437 4.3125 13.95C4.075 13.825 3.8125 13.3938 3.8125 13.125C3.8125 12.8562 4.075 12.425 4.3125 12.3C4.49375 12.2063 4.68125 12.1875 5.5 12.1875C6.31875 12.1875 6.50625 12.2063 6.6875 12.3ZM11.9375 12.3C12.175 12.425 12.4375 12.8562 12.4375 13.125C12.4375 13.3938 12.175 13.825 11.9375 13.95C11.7563 14.0437 11.5688 14.0625 10.75 14.0625C9.93125 14.0625 9.74375 14.0437 9.5625 13.95C9.325 13.825 9.0625 13.3938 9.0625 13.125C9.0625 12.8562 9.325 12.425 9.5625 12.3C9.74375 12.2063 9.93125 12.1875 10.75 12.1875C11.5688 12.1875 11.7563 12.2063 11.9375 12.3ZM17.1875 12.3C17.425 12.425 17.6875 12.8562 17.6875 13.125C17.6875 13.3938 17.425 13.825 17.1875 13.95C17.0063 14.0437 16.8188 14.0625 16 14.0625C15.1813 14.0625 14.9938 14.0437 14.8125 13.95C14.575 13.825 14.3125 13.3938 14.3125 13.125C14.3125 12.8562 14.575 12.425 14.8125 12.3C14.9938 12.2063 15.1813 12.1875 16 12.1875C16.8188 12.1875 17.0063 12.2063 17.1875 12.3ZM22.4375 12.3C22.675 12.425 22.9375 12.8562 22.9375 13.125C22.9375 13.3938 22.675 13.825 22.4375 13.95C22.2563 14.0437 22.0688 14.0625 21.25 14.0625C20.4312 14.0625 20.2437 14.0437 20.0625 13.95C19.825 13.825 19.5625 13.3938 19.5625 13.125C19.5625 12.8562 19.825 12.425 20.0625 12.3C20.2437 12.2063 20.4312 12.1875 21.25 12.1875C22.0688 12.1875 22.2563 12.2063 22.4375 12.3ZM27.6875 12.3C27.925 12.425 28.1875 12.8562 28.1875 13.125C28.1875 13.3938 27.925 13.825 27.6875 13.95C27.5063 14.0437 27.3188 14.0625 26.5 14.0625C25.6812 14.0625 25.4937 14.0437 25.3125 13.95C25.075 13.825 24.8125 13.3938 24.8125 13.125C24.8125 12.8562 25.075 12.425 25.3125 12.3C25.4937 12.2063 25.6812 12.1875 26.5 12.1875C27.3188 12.1875 27.5063 12.2063 27.6875 12.3ZM6.6875 16.05C6.925 16.175 7.1875 16.6062 7.1875 16.875C7.1875 17.1438 6.925 17.575 6.6875 17.7C6.50625 17.7937 6.31875 17.8125 5.5 17.8125C4.68125 17.8125 4.49375 17.7937 4.3125 17.7C4.075 17.575 3.8125 17.1438 3.8125 16.875C3.8125 16.6062 4.075 16.175 4.3125 16.05C4.49375 15.9563 4.68125 15.9375 5.5 15.9375C6.31875 15.9375 6.50625 15.9563 6.6875 16.05ZM11.9375 16.05C12.175 16.175 12.4375 16.6062 12.4375 16.875C12.4375 17.1438 12.175 17.575 11.9375 17.7C11.7563 17.7937 11.5688 17.8125 10.75 17.8125C9.93125 17.8125 9.74375 17.7937 9.5625 17.7C9.325 17.575 9.0625 17.1438 9.0625 16.875C9.0625 16.6062 9.325 16.175 9.5625 16.05C9.74375 15.9563 9.93125 15.9375 10.75 15.9375C11.5688 15.9375 11.7563 15.9563 11.9375 16.05ZM17.1875 16.05C17.425 16.175 17.6875 16.6062 17.6875 16.875C17.6875 17.1438 17.425 17.575 17.1875 17.7C17.0063 17.7937 16.8188 17.8125 16 17.8125C15.1813 17.8125 14.9938 17.7937 14.8125 17.7C14.575 17.575 14.3125 17.1438 14.3125 16.875C14.3125 16.6062 14.575 16.175 14.8125 16.05C14.9938 15.9563 15.1813 15.9375 16 15.9375C16.8188 15.9375 17.0063 15.9563 17.1875 16.05ZM22.4375 16.05C22.675 16.175 22.9375 16.6062 22.9375 16.875C22.9375 17.1438 22.675 17.575 22.4375 17.7C22.2563 17.7937 22.0688 17.8125 21.25 17.8125C20.4312 17.8125 20.2437 17.7937 20.0625 17.7C19.825 17.575 19.5625 17.1438 19.5625 16.875C19.5625 16.6062 19.825 16.175 20.0625 16.05C20.2437 15.9563 20.4312 15.9375 21.25 15.9375C22.0688 15.9375 22.2563 15.9563 22.4375 16.05ZM27.6875 16.05C27.925 16.175 28.1875 16.6062 28.1875 16.875C28.1875 17.1438 27.925 17.575 27.6875 17.7C27.5063 17.7937 27.3188 17.8125 26.5 17.8125C25.6812 17.8125 25.4937 17.7937 25.3125 17.7C25.075 17.575 24.8125 17.1438 24.8125 16.875C24.8125 16.6062 25.075 16.175 25.3125 16.05C25.4937 15.9563 25.6812 15.9375 26.5 15.9375C27.3188 15.9375 27.5063 15.9563 27.6875 16.05Z" fill="#2D88D6"/>
<path d="M0 29.7812C0 31.4688 0.03125 31.6062 0.4875 31.8625C0.73125 32 0.775 32 2.80625 32C4.7625 32 4.89375 31.9937 5.125 31.875C5.2875 31.7938 5.41875 31.6625 5.5 31.5C5.6125 31.275 5.625 31.1375 5.625 29.7812V28.3125H2.8125H0V29.7812Z" fill="#2D88D6"/>
<path d="M26.375 29.7812C26.375 31.1375 26.3875 31.275 26.5 31.5C26.5812 31.6625 26.7125 31.7938 26.875 31.875C27.1062 31.9937 27.2375 32 29.1875 32C31.1375 32 31.2688 31.9937 31.5 31.875C31.6625 31.7938 31.7938 31.6625 31.875 31.5C31.9875 31.275 32 31.1375 32 29.7812V28.3125H29.1875H26.375V29.7812Z" fill="#2D88D6"/>
</g>
<defs>
<clipPath id="clip0_114_4591">
<rect width="32" height="32" fill="white"/>
</clipPath>
</defs>
</svg>
