<svg width="50" height="50" viewBox="0 0 50 50" fill="none" xmlns="http://www.w3.org/2000/svg">
<g clip-path="url(#clip0_477_22588)">
<path d="M23.0291 0.560711C20.745 1.15202 18.832 2.70564 17.8001 4.79259C17.174 6.07955 16.9653 6.99549 16.9653 8.3868C16.9885 12.2477 18.9943 16.0622 23.0175 19.9578C24.4204 21.3027 24.7566 21.5114 25.2668 21.3839C25.6842 21.2795 27.1682 19.9462 28.2001 18.752C30.519 16.0622 31.9798 13.6042 32.7219 11.1694C32.9885 10.2767 33.0349 9.91723 33.0349 8.67665C33.0465 6.9723 32.8726 6.16071 32.2001 4.79259C30.5421 1.43028 26.6465 -0.366825 23.0291 0.560711ZM26.3334 3.59839C28.5132 4.14332 29.9392 6.47375 29.545 8.81578C29.1856 10.868 27.7943 12.2477 25.7305 12.6187C24.861 12.7694 23.8639 12.6303 22.9479 12.2129C21.1624 11.4129 20.1074 9.30274 20.4552 7.26216C20.9421 4.44477 23.4581 2.87955 26.3334 3.59839Z" fill="#A5A8AD"/>
<path d="M24.2116 5.36066C23.5276 5.58095 22.971 6.03313 22.6 6.6824C22.3334 7.13458 22.2754 7.36646 22.2754 8.03893C22.2754 8.72298 22.3334 8.94327 22.6 9.40704C23.2377 10.4853 24.4435 11.0302 25.5797 10.7636C27.5739 10.2882 28.4087 7.96936 27.1681 6.33458C26.4957 5.45342 25.2319 5.03603 24.2116 5.36066Z" fill="#A5A8AD"/>
<path d="M9.15074 16.781C5.25509 17.9636 2.08987 18.9723 2.13625 19.0071C2.24059 19.1114 24.8261 26.2998 25.0232 26.2998C25.1044 26.2998 27.5971 25.523 30.5652 24.5723C33.5334 23.6215 38.6232 21.9984 41.8696 20.9665C45.1276 19.9346 47.8174 19.0534 47.8638 19.0071C47.9102 18.9723 46.9478 18.636 45.7189 18.265C44.4899 17.894 41.2667 16.9201 38.5536 16.0853C35.829 15.2621 33.5449 14.5897 33.4754 14.5897C33.4058 14.5897 33.1971 14.8911 33.0116 15.2621C31.8522 17.5462 27.771 22.2302 26.287 22.9723C25.5102 23.3549 24.6058 23.3897 23.887 23.065C22.4029 22.3926 18.4145 17.9288 17.116 15.494C16.7913 14.8911 16.571 14.5897 16.4435 14.6013C16.3391 14.6128 13.058 15.5868 9.15074 16.781Z" fill="#A5A8AD"/>
<path d="M17.7181 27.4461L17.7181 27.4462C17.6157 27.3218 17.4925 27.2413 17.4163 27.1955C17.3279 27.1424 17.2274 27.0925 17.1216 27.0448C16.9094 26.9492 16.6204 26.8377 16.2451 26.7045C15.4911 26.437 14.3251 26.0593 12.5866 25.5145M17.7181 27.4461L12.5866 25.5145M17.7181 27.4461L17.7248 27.4544C17.9637 27.753 18.0291 28.0772 18.0611 28.518C18.0925 28.9514 18.0978 29.6499 18.0978 30.8215C18.0978 32.0504 18.0956 32.7541 18.0605 33.1814C18.0426 33.3998 18.0128 33.6002 17.947 33.7854C17.8743 33.9903 17.7745 34.1292 17.6914 34.2332C17.5561 34.4042 17.3837 34.5674 17.1488 34.6782C16.9155 34.7881 16.6806 34.8179 16.4667 34.8179C16.3677 34.8179 16.2696 34.7994 16.2249 34.7909C16.1612 34.7787 16.0873 34.7623 16.0074 34.7432C15.8466 34.7049 15.6363 34.65 15.3857 34.5816C14.8831 34.4444 14.1972 34.2471 13.3771 34.0045C11.7358 33.5189 9.54328 32.8481 7.1755 32.1052L7.17549 32.1052L7.1701 32.1035C6.97485 32.0406 6.69611 31.9379 6.46276 31.7003C6.22138 31.4546 6.10883 31.1503 6.04735 30.8448C5.93491 30.2861 5.9375 29.3855 5.9544 27.9604L5.95442 27.9594L5.9892 25.3391L5.9937 25.0002L6.25104 24.7796L6.57257 24.504M17.7181 27.4461L6.57257 24.504M12.5866 25.5145C11.3267 25.1197 10.1558 24.7594 9.28574 24.4975C8.85113 24.3667 8.48929 24.2597 8.22814 24.1851C8.09819 24.148 7.98917 24.1177 7.90706 24.0963C7.86667 24.0857 7.8271 24.0758 7.79228 24.068C7.77524 24.0642 7.75319 24.0596 7.72949 24.0554L7.72807 24.0552C7.71466 24.0528 7.65593 24.0425 7.58551 24.0425C7.43171 24.0425 7.30148 24.0838 7.23298 24.1082C7.15014 24.1377 7.07053 24.1748 6.99935 24.2125C6.859 24.287 6.70765 24.3872 6.57446 24.5024M12.5866 25.5145L6.57446 24.5024M6.57446 24.5024C6.57383 24.5029 6.5732 24.5035 6.57257 24.504M6.57446 24.5024L6.57257 24.504M12.6918 46.4968L12.6919 46.4968C16.6516 47.6734 20.1997 48.724 22.2361 49.327C22.6706 49.4557 23.0363 49.564 23.3225 49.6487V39.32V28.5289L12.7953 25.1708L12.7951 25.1707C7.67678 23.5364 3.18762 22.1034 1.75 21.6468V32.0273C1.75 37.376 1.75293 40.2227 1.77888 41.7625C1.79146 42.509 1.80924 42.924 1.83158 43.1615C1.89169 43.185 1.96496 43.2125 2.05337 43.2444C2.41967 43.3765 2.99235 43.565 3.84448 43.8319C5.54551 44.3647 8.3198 45.1979 12.6918 46.4968Z" stroke="#A5A8AD" stroke-width="1.5"/>
<path d="M8.55935 28.3985L8.59413 29.8245L12.0492 30.8796L15.4927 31.9463V30.5434V29.1405L12.1536 28.1086C10.3217 27.5405 8.75645 27.0535 8.67529 27.0188C8.55935 26.984 8.53616 27.2738 8.55935 28.3985Z" fill="#A5A8AD"/>
<path d="M37.6684 25.0197L37.6684 25.0197L26.6772 28.5284V39.3197C26.6772 44.8141 26.6802 47.6392 26.7075 49.0838C26.7117 49.301 26.7163 49.4831 26.7213 49.6354C26.7745 49.6197 26.8302 49.6032 26.8882 49.5861C27.4788 49.4117 28.3182 49.1635 29.345 48.8599C29.6683 48.7643 30.0101 48.6633 30.3685 48.5572C32.2872 47.9899 34.683 47.2814 37.262 46.5195C41.7034 45.2033 44.4861 44.3673 46.1779 43.836C47.0255 43.5699 47.589 43.3835 47.947 43.2533C48.0339 43.2217 48.1055 43.1945 48.1639 43.1714C48.1873 42.9403 48.2061 42.5327 48.2194 41.7889C48.2468 40.2569 48.2497 37.4107 48.2497 32.027C48.2497 28.8911 48.2468 26.0395 48.2425 23.9735C48.2404 23.011 48.2381 22.2195 48.2356 21.6493C47.6492 21.8355 46.8168 22.1005 45.7971 22.4256C43.706 23.0922 40.8279 24.011 37.6684 25.0197Z" stroke="#A5A8AD" stroke-width="1.5"/>
</g>
<defs>
<clipPath id="clip0_477_22588">
<rect width="50" height="50" fill="white"/>
</clipPath>
</defs>
</svg>
