<svg width="50" height="50" viewBox="0 0 50 50" fill="none" xmlns="http://www.w3.org/2000/svg">
<path d="M4.15039 1.80664L3.90625 2.04102V20.9473V39.8438H2.97852C2.11914 39.8438 2.02148 39.8633 1.80664 40.0879L1.5625 40.3223V44.1406V47.959L1.80664 48.1934L2.04102 48.4375H4.6875H7.33398L7.56836 48.1934C7.8125 47.959 7.8125 47.9297 7.8125 46.2402V44.5312H14.8438H21.875V46.2402C21.875 47.9297 21.875 47.959 22.1191 48.1934L22.3535 48.4375H25H27.6465L27.8809 48.1934C28.125 47.959 28.125 47.9297 28.125 46.2402V44.5312H35.1562H42.1875V46.2402C42.1875 47.9297 42.1875 47.959 42.4316 48.1934L42.666 48.4375H45.3125H47.959L48.1934 48.1934L48.4375 47.959V44.1406V40.3223L48.1934 40.0879C47.9785 39.8633 47.8809 39.8438 47.0215 39.8438H46.0938V20.9473V2.04102L45.8496 1.80664L45.6152 1.5625H25H4.38477L4.15039 1.80664ZM11.7188 6.05469C11.7188 7.98828 11.7578 9.05273 11.8262 9.20898C11.9336 9.45312 12.2852 9.66797 12.5488 9.66797C12.627 9.66797 13.1738 9.33594 13.7695 8.93555L14.8438 8.20312L15.918 8.93555C16.5137 9.33594 17.0898 9.66797 17.1973 9.66797C17.3047 9.66797 17.5293 9.54102 17.6855 9.38477L17.9688 9.10156V6.11328V3.125H21.0938H24.2188V11.7188V20.3125H14.8438H5.46875V11.7188V3.125H8.59375H11.7188V6.05469ZM32.0312 6.05469C32.0312 7.98828 32.0703 9.05273 32.1387 9.20898C32.2461 9.45312 32.5977 9.66797 32.8613 9.66797C32.9395 9.66797 33.4863 9.33594 34.082 8.93555L35.1562 8.20312L36.2305 8.93555C36.8262 9.33594 37.4023 9.66797 37.5098 9.66797C37.6172 9.66797 37.8418 9.54102 37.998 9.38477L38.2812 9.10156V6.11328V3.125H41.4062H44.5312V11.7188V20.3125H35.1562H25.7812V11.7188V3.125H28.9062H32.0312V6.05469ZM11.7188 24.9902C11.7188 28.0957 11.7188 28.1152 11.9434 28.3594C12.1484 28.584 12.334 28.6523 12.6953 28.623C12.7832 28.623 13.3008 28.2812 13.8477 27.8809L14.8438 27.1484L15.7812 27.832C16.8457 28.623 17.0898 28.7402 17.4219 28.6133C17.959 28.4082 17.9688 28.3398 17.9688 24.9805V21.875H21.0938H24.2188V30.8594V39.8438H14.8438H5.46875V30.8594V21.875H8.59375H11.7188V24.9902ZM32.0312 24.9902C32.0312 28.0957 32.0312 28.1152 32.2559 28.3594C32.4609 28.584 32.6465 28.6523 33.0078 28.623C33.0957 28.623 33.6133 28.2812 34.1602 27.8809L35.1562 27.1484L36.0938 27.832C37.1582 28.623 37.4023 28.7402 37.7344 28.6133C38.2715 28.4082 38.2812 28.3398 38.2812 24.9805V21.875H41.4062H44.5312V30.8594V39.8438H35.1562H25.7812V30.8594V21.875H28.9062H32.0312V24.9902Z" fill="#A5A8AD"/>
</svg>
