<svg width="32" height="32" viewBox="0 0 32 32" fill="none" xmlns="http://www.w3.org/2000/svg">
<g clip-path="url(#clip0_114_20064)">
<path opacity="0.986" fill-rule="evenodd" clip-rule="evenodd" d="M24.0938 -0.03125C25.5729 -0.03125 27.0521 -0.03125 28.5312 -0.03125C28.7991 0.101366 28.997 0.3097 29.125 0.59375C29.1203 4.76127 27.2974 7.83419 23.6562 9.8125C21.8101 10.6502 19.8726 10.994 17.8438 10.8437C17.8438 8.92706 17.8438 7.01044 17.8438 5.09375C19.6756 5.41531 21.2277 4.91531 22.5 3.59375C23.1893 2.67174 23.5435 1.63008 23.5625 0.46875C23.6921 0.245197 23.8692 0.07853 24.0938 -0.03125Z" fill="#2D88D6"/>
<path opacity="0.941" fill-rule="evenodd" clip-rule="evenodd" d="M14.8438 3.21875C15.4775 3.18629 15.8629 3.47796 16 4.09375C16.0417 6.65625 16.0417 9.21875 16 11.7812C15.9349 12.3567 15.612 12.6692 15.0313 12.7187C14.5096 12.6868 14.1867 12.416 14.0625 11.9062C14.0208 9.28125 14.0208 6.65625 14.0625 4.03125C14.1676 3.6033 14.4281 3.33247 14.8438 3.21875Z" fill="#2D88D6"/>
<path opacity="0.983" fill-rule="evenodd" clip-rule="evenodd" d="M11.8438 5.09375C11.9688 5.09375 12.0938 5.09375 12.2188 5.09375C12.2188 7.01044 12.2188 8.92706 12.2188 10.8438C10.4745 10.8875 9.13075 11.6375 8.1875 13.0938C7.928 13.5601 7.73006 14.0497 7.59375 14.5625C5.67674 14.6146 3.76007 14.6042 1.84375 14.5312C2.29944 10.9823 4.04944 8.28437 7.09375 6.4375C8.58631 5.63748 10.1697 5.18957 11.8438 5.09375Z" fill="#2D88D6"/>
<path opacity="0.968" fill-rule="evenodd" clip-rule="evenodd" d="M-0.03125 17.7188C-0.03125 17.4896 -0.03125 17.2605 -0.03125 17.0313C0.108709 16.7354 0.337876 16.5375 0.65625 16.4375C3.34375 16.3958 6.03125 16.3958 8.71875 16.4375C9.43987 16.7978 9.59612 17.329 9.1875 18.0313C9.04638 18.1519 8.89013 18.2456 8.71875 18.3125C6.01042 18.3542 3.30208 18.3542 0.59375 18.3125C0.311253 18.1861 0.102919 17.9882 -0.03125 17.7188Z" fill="#2D88D6"/>
<path opacity="0.982" fill-rule="evenodd" clip-rule="evenodd" d="M1.84375 20.1563C3.76053 20.1458 5.67719 20.1563 7.59375 20.1875C8.25163 22.5271 9.79325 23.7875 12.2188 23.9688C12.2188 25.8646 12.2188 27.7604 12.2188 29.6563C8.21788 29.5153 5.18665 27.7444 3.125 24.3438C2.42703 23.0311 1.99994 21.6353 1.84375 20.1563Z" fill="#2D88D6"/>
<path opacity="0.977" fill-rule="evenodd" clip-rule="evenodd" d="M31.9688 25.9687C31.9688 26.5104 31.9688 27.052 31.9688 27.5937C31.4479 29.9895 29.9896 31.4479 27.5938 31.9687C27.0521 31.9687 26.5104 31.9687 25.9688 31.9687C24.4882 31.6968 23.3216 30.9363 22.4688 29.6875C20.9272 29.6562 19.3856 29.6458 17.8438 29.6562C17.8438 27.7604 17.8438 25.8645 17.8438 23.9687C19.3648 23.9791 20.8856 23.9687 22.4062 23.9375C24.0809 21.7545 26.2267 21.1086 28.8438 22C30.5529 22.8065 31.5946 24.1295 31.9688 25.9687ZM25.7812 23.6562C25.8434 24.3742 25.8643 25.1034 25.8438 25.8437C25.1143 25.8541 24.3851 25.8437 23.6562 25.8125C24.0428 24.7696 24.7512 24.0509 25.7812 23.6562ZM27.7812 23.7187C28.8155 24.0654 29.5238 24.7529 29.9062 25.7812C29.1991 25.8436 28.4908 25.8645 27.7812 25.8437C27.7812 25.1354 27.7812 24.427 27.7812 23.7187ZM23.7188 27.7812C24.4271 27.7812 25.1354 27.7812 25.8438 27.7812C25.8645 28.4908 25.8437 29.1991 25.7812 29.9062C24.7529 29.5238 24.0654 28.8155 23.7188 27.7812ZM27.7812 27.7812C28.4899 27.7708 29.1982 27.7812 29.9062 27.8125C29.5417 28.8437 28.8438 29.5416 27.8125 29.9062C27.7812 29.1982 27.7708 28.4898 27.7812 27.7812Z" fill="#2D88D6"/>
<path opacity="0.942" fill-rule="evenodd" clip-rule="evenodd" d="M15.0313 22.0312C15.4449 22.0806 15.7469 22.2889 15.9375 22.6562C16.0087 24.0287 16.0399 25.4037 16.0313 26.7812C16.0399 28.1588 16.0087 29.5338 15.9375 30.9062C15.6019 31.525 15.1123 31.6812 14.4688 31.375C14.2297 31.2195 14.0943 31.0007 14.0625 30.7188C14.0208 28.1146 14.0208 25.5104 14.0625 22.9062C14.1625 22.358 14.4854 22.0663 15.0313 22.0312Z" fill="#2D88D6"/>
</g>
<defs>
<clipPath id="clip0_114_20064">
<rect width="32" height="32" fill="white"/>
</clipPath>
</defs>
</svg>
