<svg width="24" height="25" viewBox="0 0 24 25" fill="none" xmlns="http://www.w3.org/2000/svg">
<path d="M11.4268 0.901008C11.771 0.660206 12.229 0.660206 12.5732 0.901008L13.8731 1.81036C14.0951 1.96568 14.3707 2.02426 14.6367 1.97267L16.1941 1.67064C16.6065 1.59066 17.0249 1.77696 17.2414 2.13694L18.059 3.49638C18.1987 3.72859 18.4266 3.89418 18.6906 3.95525L20.2362 4.31277C20.6454 4.40744 20.9519 4.74782 21.0033 5.16475L21.1973 6.73922C21.2304 7.00815 21.3713 7.25213 21.5876 7.4153L22.8542 8.37055C23.1895 8.6235 23.3311 9.0591 23.2084 9.46088L22.7453 10.9781C22.6662 11.2373 22.6956 11.5175 22.8269 11.7545L23.5954 13.1423C23.7989 13.5098 23.751 13.9653 23.4755 14.2825L22.4353 15.4802C22.2576 15.6848 22.1706 15.9527 22.1941 16.2227L22.3316 17.8031C22.3681 18.2216 22.1391 18.6182 21.7584 18.7959L20.321 19.467C20.0754 19.5816 19.8869 19.791 19.7986 20.0471L19.2815 21.5468C19.1445 21.944 18.774 22.2132 18.354 22.2207L16.7678 22.2491C16.4969 22.2539 16.2396 22.3685 16.0547 22.5666L14.9723 23.7263C14.6856 24.0335 14.2376 24.1287 13.8509 23.9647L12.3903 23.3455C12.1409 23.2397 11.8591 23.2397 11.6097 23.3455L10.1491 23.9647C9.76237 24.1287 9.31437 24.0335 9.02774 23.7263L7.94533 22.5666C7.76044 22.3685 7.50308 22.2539 7.23215 22.2491L5.64603 22.2207C5.22602 22.2132 4.85547 21.944 4.71854 21.5469L4.20142 20.0471C4.11309 19.791 3.92458 19.5816 3.67905 19.467L2.24159 18.7959C1.86094 18.6182 1.63193 18.2216 1.66837 17.8031L1.80595 16.2227C1.82945 15.9527 1.74239 15.6848 1.56471 15.4802L0.524467 14.2825C0.249004 13.9653 0.201129 13.5098 0.40463 13.1423L1.17312 11.7545C1.30439 11.5175 1.33384 11.2373 1.25473 10.9781L0.791567 9.46088C0.66892 9.0591 0.810455 8.6235 1.14584 8.37055L2.41236 7.4153C2.6287 7.25213 2.76956 7.00815 2.8027 6.73922L2.99671 5.16475C3.04808 4.74782 3.35455 4.40744 3.76383 4.31277L5.30939 3.95525C5.57339 3.89418 5.80131 3.72859 5.94097 3.49638L6.7586 2.13694C6.97511 1.77696 7.39353 1.59066 7.80593 1.67064L9.36329 1.97267C9.6293 2.02426 9.90487 1.96568 10.1269 1.81036L11.4268 0.901008Z" fill="#E84E1B"/>
<path d="M12.5106 15.382V14.8957C12.5106 14.5475 12.5931 14.2293 12.7581 13.9411C12.9265 13.6499 13.1705 13.4173 13.4902 13.2432C13.8133 13.066 14.2034 12.9775 14.6606 12.9775C15.128 12.9775 15.5199 13.0645 15.8361 13.2387C16.1523 13.4128 16.3912 13.6454 16.5527 13.9366C16.7177 14.2278 16.8002 14.5475 16.8002 14.8957V15.382C16.8002 15.7302 16.7177 16.0499 16.5527 16.3411C16.3877 16.6293 16.1454 16.8619 15.8258 17.039C15.5095 17.2131 15.1211 17.3002 14.6606 17.3002C14.1965 17.3002 13.8047 17.2131 13.4851 17.039C13.1654 16.8619 12.9231 16.6293 12.7581 16.3411C12.5931 16.0499 12.5106 15.7302 12.5106 15.382ZM13.7119 14.8957V15.382C13.7119 15.6402 13.7824 15.8743 13.9233 16.0844C14.0642 16.2946 14.31 16.3996 14.6606 16.3996C15.0077 16.3996 15.25 16.2946 15.3875 16.0844C15.525 15.8743 15.5938 15.6402 15.5938 15.382V14.8957C15.5938 14.6375 15.5267 14.4034 15.3927 14.1933C15.2621 13.9831 15.018 13.8781 14.6606 13.8781C14.3168 13.8781 14.0728 13.9831 13.9284 14.1933C13.7841 14.4034 13.7119 14.6375 13.7119 14.8957ZM7.2002 10.1047V9.61839C7.2002 9.27018 7.28269 8.95048 7.44767 8.65929C7.61609 8.36811 7.86013 8.13547 8.17979 7.96136C8.50288 7.78725 8.893 7.7002 9.35014 7.7002C9.8176 7.7002 10.2094 7.78725 10.5257 7.96136C10.8419 8.13547 11.0808 8.36811 11.2423 8.65929C11.4038 8.95048 11.4846 9.27018 11.4846 9.61839V10.1047C11.4846 10.4529 11.4021 10.7726 11.2371 11.0638C11.0756 11.352 10.835 11.5846 10.5153 11.7617C10.1991 11.9358 9.81072 12.0229 9.35014 12.0229C8.88269 12.0229 8.48913 11.9358 8.16948 11.7617C7.85326 11.5846 7.61266 11.352 7.44767 11.0638C7.28269 10.7726 7.2002 10.4529 7.2002 10.1047ZM8.40664 9.61839V10.1047C8.40664 10.3629 8.47538 10.597 8.61287 10.8071C8.75379 11.0173 8.99955 11.1223 9.35014 11.1223C9.69386 11.1223 9.93446 11.0173 10.0719 10.8071C10.2129 10.597 10.2833 10.3629 10.2833 10.1047V9.61839C10.2833 9.36023 10.2163 9.12609 10.0823 8.91596C9.94821 8.70582 9.70417 8.60076 9.35014 8.60076C9.00643 8.60076 8.76239 8.70582 8.61803 8.91596C8.4771 9.12609 8.40664 9.36023 8.40664 9.61839ZM7.68999 17.1111L14.9493 7.88931H16.1815L8.92221 17.1111H7.68999Z" fill="white"/>
</svg>
