<svg width="32" height="32" viewBox="0 0 32 32" fill="none" xmlns="http://www.w3.org/2000/svg">
<path d="M9.60625 4.9C8.84375 5.175 8.38125 5.83125 8.375 6.63125C8.375 7.41875 8.7375 8.01875 9.425 8.35625L9.78125 8.53125H16H22.2187L22.575 8.35625C23.9687 7.66875 23.9875 5.725 22.6062 4.9875L22.3437 4.84375L16.0937 4.83125C10.9437 4.81875 9.8 4.83125 9.60625 4.9Z" fill="#2D88D6"/>
<path d="M14.125 11.5312V12.625H16H17.875V11.5312V10.4375H16H14.125V11.5312Z" fill="#2D88D6"/>
<path d="M11.9375 15.3062V16.1125L11.4688 16.3313C10.9 16.6062 10.2063 17.0437 9.76875 17.4125L9.45 17.6875H7.5375H5.625V21.2812V24.875H7.5375H9.45L9.775 25.15C10.5938 25.85 11.975 26.5437 13.1562 26.8375C14.2937 27.125 14.6 27.1562 16.0312 27.1562C17.2 27.1562 17.5063 27.1312 18.0938 27.0187C19.7438 26.6813 21.1938 26.0312 22.2313 25.15L22.55 24.875H24.4625H26.375V21.2812V17.6875H24.4625H22.55L22.2313 17.4187C21.7437 17.0062 21.1813 16.6438 20.5938 16.3625L20.0625 16.1125V15.3062V14.5H16H11.9375V15.3062Z" fill="#2D88D6"/>
<path d="M0.437501 16.3875C-0.0249986 16.6937 1.41421e-06 16.4562 0.0125014 21.3562C0.0312514 25.7062 0.0312514 25.7437 0.162501 25.9187C0.437501 26.2812 0.631251 26.3437 1.6625 26.3687C3.04375 26.4 3.4125 26.2875 3.68125 25.7687C3.73125 25.675 3.75 24.375 3.75 21.2812C3.75 16.5687 3.7625 16.7687 3.40625 16.4375C3.24375 16.2812 3.23125 16.2812 1.95 16.2625C0.681251 16.2437 0.650002 16.2437 0.437501 16.3875Z" fill="#2D88D6"/>
<path d="M28.7 16.375C28.5875 16.4437 28.4437 16.5875 28.375 16.7C28.2562 16.9 28.25 17.025 28.25 21.2875V25.6687L28.3937 25.875C28.675 26.3 28.8312 26.3438 30.125 26.3438C31.4 26.3438 31.55 26.3062 31.8375 25.9187C31.9687 25.7437 31.9687 25.7063 31.9875 21.3562C32 16.4563 32.025 16.6937 31.5687 16.3938C31.3687 16.2562 31.3 16.25 30.1312 16.25C29.0187 16.25 28.8875 16.2625 28.7 16.375Z" fill="#2D88D6"/>
</svg>
