<svg width="32" height="32" viewBox="0 0 32 32" fill="none" xmlns="http://www.w3.org/2000/svg">
<path d="M14.125 0.0937505C12.175 0.4875 10.625 2.0125 10.2188 3.9375C10.1687 4.18125 10.125 4.55 10.125 4.75625V5.125H13.0625H16V2.9375C16 0.8625 15.9938 0.73125 15.875 0.5C15.6312 0.0250001 15.0875 -0.0999999 14.125 0.0937505Z" fill="#2D88D6"/>
<path d="M19.6563 0.0812492C19.425 0.19375 19.2188 0.4125 19.1313 0.643749C19.0875 0.75625 19.0625 1.66875 19.0625 3.20625V5.59375L18.3625 6.29375L17.6563 7L12.6875 7.0125L7.71875 7.03125L7.48125 7.175C7.1375 7.39375 7.04375 7.625 7.05625 8.20625C7.075 9.25625 7.4 10.25 8.05625 11.25C8.175 11.4375 8.96875 12.2937 9.8125 13.1562C11.1 14.4688 11.3813 14.7875 11.575 15.1562C11.8313 15.65 11.975 16.1125 12.0375 16.6375L12.075 17H16H19.925L19.9625 16.6375C20.025 16.1125 20.1688 15.65 20.425 15.1562C20.6125 14.7875 20.8938 14.4688 22.1875 13.1562C23.7813 11.5375 24.0375 11.2188 24.4375 10.3562C24.9188 9.325 25.0313 8.43125 24.9875 5.96875C24.95 4.11875 24.8875 3.7375 24.4938 2.88125C23.7188 1.2125 22.1438 0.13125 20.35 0.0249996C19.9938 0.00625038 19.7875 0.0187492 19.6563 0.0812492ZM17.5063 11.2062C18.0813 11.5875 18.0688 12.3375 17.4813 12.775C17.3125 12.9 17.225 12.9062 16 12.9062C14.775 12.9062 14.6875 12.9 14.5188 12.775C13.9313 12.3375 13.9188 11.5875 14.4938 11.2062C14.7 11.0687 14.7563 11.0625 16 11.0625C17.2438 11.0625 17.3 11.0687 17.5063 11.2062Z" fill="#2D88D6"/>
<path d="M12.0625 25.0625C12.0625 31.8625 12.0438 31.5312 12.4438 31.8187L12.6563 31.9688H16H19.3438L19.5563 31.8187C19.9563 31.5312 19.9375 31.8625 19.9375 25.0625V18.875H16H12.0625V25.0625Z" fill="#2D88D6"/>
</svg>
