<svg width="232" height="130" viewBox="0 0 232 130" fill="none" xmlns="http://www.w3.org/2000/svg">
<path d="M64.5191 97.5C73.4801 97.5 81.0969 94.3403 87.3696 88.0208C93.6423 81.7014 96.7787 74.0278 96.7787 65C96.7787 55.9722 93.6423 48.2986 87.3696 41.9792C81.0969 35.6597 73.4801 32.5 64.5191 32.5C55.5581 32.5 47.9413 35.6597 41.6686 41.9792C35.3959 48.2986 32.2596 55.9722 32.2596 65C32.2596 74.0278 35.3959 81.7014 41.6686 88.0208C47.9413 94.3403 55.5581 97.5 64.5191 97.5ZM64.5191 130C46.5971 130 31.3635 123.681 18.8181 111.042C6.27269 98.4028 0 83.0556 0 65C0 46.9444 6.27269 31.5972 18.8181 18.9583C31.3635 6.31944 46.5971 0 64.5191 0C79.0359 0 91.7175 4.15278 102.564 12.4583C113.41 20.7639 120.981 31.0556 125.275 43.3333L210.762 43.3333C212.196 43.3333 213.587 43.6042 214.935 44.1458C216.282 44.6875 217.401 45.4097 218.29 46.3125L228.774 56.875C229.849 57.9583 230.656 59.1753 231.194 60.5258C231.731 61.8764 232 63.2775 232 64.7292C232 66.1736 231.778 67.5278 231.333 68.7917C230.889 70.0556 230.125 71.2292 229.043 72.3125L201.085 100.479C200.009 101.562 198.844 102.375 197.59 102.917C196.335 103.458 194.991 103.729 193.557 103.729C192.124 103.729 190.779 103.502 189.525 103.047C188.27 102.592 187.105 101.826 186.03 100.75L172.051 86.6667L158.072 100.75C156.997 101.833 155.832 102.599 154.577 103.047C153.323 103.494 151.978 103.722 150.545 103.729C149.111 103.729 147.767 103.502 146.512 103.047C145.258 102.592 144.093 101.826 143.017 100.75L129.038 86.6667L125.275 86.6667C120.794 99.6667 112.998 110.139 101.886 118.083C90.7748 126.028 78.319 130 64.5191 130Z" fill="#F7F7F7"/>
</svg>
