<svg width="193" height="60" viewBox="0 0 193 60" fill="none" xmlns="http://www.w3.org/2000/svg">
<path d="M7.28998 26.3V14.75V4.57L0.019989 0.379997V10.62V26.59L0 26.63V41.72L8.20999 46.46L8.19 46.5L19.7 53.15L26.26 56.94L26.28 56.92V56.91L26.29 56.92L26.31 56.91V56.92L26.33 56.94L32.89 53.15L44.4 46.5L44.38 46.46L52.59 41.72V26.63L52.57 26.59V10.62V0.379997L45.3 4.57V14.75V26.3L45.31 26.33V37.25L39.38 40.67L39.39 40.7L31.06 45.51L26.32 48.25L26.3 48.24V48.23L26.29 48.24V48.23V48.24L26.27 48.25L21.53 45.51L13.2 40.7L13.21 40.67L7.28 37.25V26.33L7.28998 26.3Z" fill="#E84E1B"/>
<path d="M26.29 36.33L24.02 35.02L20.03 32.71V32.7L17.19 31.06V25.83L17.2 25.82V20.29V10.23L9.69998 5.89999L9.67999 5.91V25.83H9.69V35.43L17.98 40.22L17.99 40.21L26.3 45.01L33.81 40.67H33.8L42.91 35.41V33.24V25.82H42.9V16.22L34.61 11.43L34.6 11.44L26.29 6.64L19.28 10.69V19.37L21.74 17.94V17.95L26.3 15.32L30.85 17.94L30.84 17.95L35.4 20.59V25.82L35.39 25.83V31.08L30.85 33.7L26.29 36.33Z" fill="#1D70B7"/>
<path d="M190.87 2.06C189.94 0.919998 188.19 0.369995 185.59 0.369995H166.72L169.64 3.8V27.27H178.32V21.16H184.77C190.09 21.16 192.28 18.84 192.28 12.77V8.21999C192.29 5.22999 191.8 3.2 190.87 2.06ZM183.52 13.28C183.52 15.14 183.2 15.64 181.9 15.64H178.33V6.28H181.9C183.2 6.28 183.52 6.7 183.52 8.56V13.28Z" fill="#1D1D1B"/>
<path d="M109.37 32.79H100.1H100.04H90.42L93.34 36.22V42.2V51.18C93.34 54.43 93.91 56.66 95 57.88C96.14 59.1 97.96 59.69 100.48 59.69H109.37C112.01 59.69 113.79 59.18 114.69 58.21C115.62 57.2 116.07 55.17 116.07 52.14V40.63C116.07 37.64 115.58 35.61 114.65 34.47C113.71 33.34 111.97 32.79 109.37 32.79ZM107.3 51.8C107.3 53.66 106.98 54.16 105.68 54.16H103.77C102.43 54.16 102.11 53.65 102.11 51.8V40.96C102.11 39.1 102.43 38.68 103.77 38.68H105.68C106.98 38.68 107.3 39.1 107.3 40.96V51.8Z" fill="#1D1D1B"/>
<path d="M131.34 32.79H126.93H120.87H117.95L120.87 35.96V38.92V59.69H129.63V38.99L134.26 44.64V59.69H142.78V56.52V52.57V44.6L134.62 34.19C133.74 33.25 132.64 32.79 131.34 32.79Z" fill="#1D1D1B"/>
<path d="M146.2 36.21V59.69H154.9L154.89 54.79V41.74V39.9V39.16H164.5V32.79H143.28L146.2 36.21Z" fill="#1D1D1B"/>
<path d="M86.04 46.41C88.23 46.03 89.33 44.71 89.33 41.34V38.69C89.33 34.98 87.63 32.79 82.88 32.79H64.01L66.93 38.27V59.69H82.55C87.91 59.69 90.58 58.66 90.58 53.81V52.65C90.58 49.4 88.92 48.7 86.04 46.41ZM75.61 38.69H79.22C80.48 38.69 80.84 39.84 80.84 41.31V43.31C80.84 43.82 80.04 44.36 79.22 43.9L75.61 41.36V38.69ZM80.87 53.96C80.63 54.09 80.35 54.16 80.03 54.16H75.61V45.57L81.76 49.26C82.32 49.77 82.68 50.51 82.68 51.33C82.69 52.54 81.93 53.56 80.87 53.96Z" fill="#1D1D1B"/>
<path d="M158.51 0.379997H140.17L143.09 3.81V27.28H151.77V23.12V21.24L156.88 16.45V17.32V22.8V23.12V27.28H165.56V7.88C165.56 5.05 165.07 3.07 164.06 2.02C163.09 0.929997 161.23 0.379997 158.51 0.379997ZM156.89 10.96L151.78 15.75V12.52V12.33V6.24H155.31C156.65 6.24 156.89 6.66 156.89 8.14V10.96Z" fill="#1D1D1B"/>
<path d="M184.67 32.79H166.33L169.25 36.22V59.69H177.93V55.53V53.65L183.04 48.86V49.73V55.21V55.53V59.69H191.72V40.29C191.72 37.46 191.23 35.48 190.22 34.43C189.26 33.34 187.39 32.79 184.67 32.79ZM183.05 43.37L177.94 48.16V44.93V44.74V38.65H181.47C182.81 38.65 183.05 39.07 183.05 40.55V43.37Z" fill="#1D1D1B"/>
<path d="M94.18 27.28H112.88V21.21H102.86V18.11L109.45 14.71V9.32999L102.86 12.72V9.32999V6.74H112.47V0.379997H91.25L94.18 3.8V27.28Z" fill="#1D1D1B"/>
<path d="M65.62 27.28H81.24C86.6 27.28 89.27 26.25 89.27 21.4V20.24C89.27 18.18 88.6 17.15 87.38 16.08L74.3 7.39V6.82999V6.28H74.8H88.82V0.379997H74.8H74.16H62.7L65.62 5.85999V27.28ZM74.3 13.16L80.45 16.85C81.01 17.36 81.37 18.1 81.37 18.92C81.37 20.12 80.61 21.14 79.55 21.54C79.31 21.67 79.03 21.74 78.71 21.74H74.29V13.16H74.3Z" fill="#1D1D1B"/>
<path d="M123.37 6.74999V27.28H132.05V6.74H138.02V0.379997H124.16H117.4H114.48L117.4 3.8V6.74999H123.37Z" fill="#1D1D1B"/>
</svg>
